ISO-10303-21;
HEADER;
FILE_DESCRIPTION (( 'STEP AP203' ),
    '1' );
FILE_NAME ('Part2_Default_sldprt.STEP',
    '2026-09-20T20:20:13',
    ( '' ),
    ( '' ),
    'SwSTEP 2.0',
    'SolidWorks 2025',
    '' );
FILE_SCHEMA (( 'CONFIG_CONTROL_DESIGN' ));
ENDSEC;

DATA;
#1 = CYLINDRICAL_SURFACE ( 'NONE', #1210, 71.04489738377667152 ) ;
#2 = CIRCLE ( 'NONE', #316, 4.000000000000003553 ) ;
#3 = VERTEX_POINT ( 'NONE', #870 ) ;
#4 = DIRECTION ( 'NONE',  ( 1.000000000000000000, 0.000000000000000000, 0.000000000000000000 ) ) ;
#5 = DIRECTION ( 'NONE',  ( 0.000000000000000000, -0.9574089405581037715, 0.2887353815163795634 ) ) ;
#6 = CARTESIAN_POINT ( 'NONE',  ( 0.1332417169469699847, 26.26899825623249285, 336.4749638216568997 ) ) ;
#7 = ORIENTED_EDGE ( 'NONE', *, *, #160, .F. ) ;
#8 = AXIS2_PLACEMENT_3D ( 'NONE', #1031, #156, #1024 ) ;
#9 = AXIS2_PLACEMENT_3D ( 'NONE', #735, #454, #934 ) ;
#10 = ADVANCED_BREP_SHAPE_REPRESENTATION ( 'Part2_Default_sldprt', ( #428, #1269, #815, #1120 ), #1183 ) ;
#11 = CARTESIAN_POINT ( 'NONE',  ( 0.3077507626448056643, 57.56610217191985157, 327.9232093661142358 ) ) ;
#12 = EDGE_CURVE ( 'NONE', #323, #1066, #84, .T. ) ;
#13 = VERTEX_POINT ( 'NONE', #588 ) ;
#14 = CARTESIAN_POINT ( 'NONE',  ( 0.5000000000000000000, 22.49469575479341898, 251.6039316025449182 ) ) ;
#15 = PERSON_AND_ORGANIZATION ( #138, #611 ) ;
#16 = CARTESIAN_POINT ( 'NONE',  ( 0.2264254332861978525, 40.07677577749666398, 333.1976402963441615 ) ) ;
#17 = CARTESIAN_POINT ( 'NONE',  ( 0.000000000000000000, -47.24583478040015905, 334.6368214025601446 ) ) ;
#18 = ORIENTED_EDGE ( 'NONE', *, *, #988, .F. ) ;
#19 = VERTEX_POINT ( 'NONE', #785 ) ;
#20 = CYLINDRICAL_SURFACE ( 'NONE', #850, 4.000000000000003553 ) ;
#21 = EDGE_CURVE ( 'NONE', #541, #1087, #554, .T. ) ;
#22 = VECTOR ( 'NONE', #907, 1000.000000000000000 ) ;
#23 = CARTESIAN_POINT ( 'NONE',  ( 0.1440725594507530904, -50.01238352559242628, 331.8897610913550125 ) ) ;
#24 = CC_DESIGN_DATE_AND_TIME_ASSIGNMENT ( #1091, #997, ( #1056 ) ) ;
#25 = PERSON_AND_ORGANIZATION ( #138, #611 ) ;
#26 = VERTEX_POINT ( 'NONE', #1180 ) ;
#27 = ORIENTED_EDGE ( 'NONE', *, *, #1124, .F. ) ;
#28 = CARTESIAN_POINT ( 'NONE',  ( 0.000000000000000000, 4.658068072423887429, 324.0522416802539283 ) ) ;
#29 = EDGE_CURVE ( 'NONE', #112, #512, #693, .T. ) ;
#30 = DIRECTION ( 'NONE',  ( 1.000000000000000000, 0.000000000000000000, 0.000000000000000000 ) ) ;
#31 = AXIS2_PLACEMENT_3D ( 'NONE', #932, #534, #839 ) ;
#32 = APPLICATION_PROTOCOL_DEFINITION ( 'international standard', 'config_control_design', 1994, #563 ) ;
#33 = VERTEX_POINT ( 'NONE', #691 ) ;
#34 = CARTESIAN_POINT ( 'NONE',  ( 0.5000000000000000000, 5.714428705934910369, 328.0138199278678712 ) ) ;
#35 = CARTESIAN_POINT ( 'NONE',  ( -0.5000000000000000000, 22.49469575479341898, 251.6039316025449182 ) ) ;
#36 = COORDINATED_UNIVERSAL_TIME_OFFSET ( 5, 0, .AHEAD. ) ;
#37 = FACE_OUTER_BOUND ( 'NONE', #66, .T. ) ;
#38 = ORIENTED_EDGE ( 'NONE', *, *, #1239, .F. ) ;
#39 = DIRECTION ( 'NONE',  ( 0.000000000000000000, 0.000000000000000000, 1.000000000000000000 ) ) ;
#40 = DIRECTION ( 'NONE',  ( 1.000000000000000000, 0.000000000000000000, -0.000000000000000000 ) ) ;
#41 = AXIS2_PLACEMENT_3D ( 'NONE', #421, #433, #621 ) ;
#42 = DIRECTION ( 'NONE',  ( 1.000000000000000000, 0.000000000000000000, 0.000000000000000000 ) ) ;
#43 = CARTESIAN_POINT ( 'NONE',  ( 0.000000000000000000, 10.00597954119519528, 307.0278633030694095 ) ) ;
#44 = ORIENTED_EDGE ( 'NONE', *, *, #449, .F. ) ;
#45 = ADVANCED_FACE ( 'NONE', ( #509 ), #386, .F. ) ;
#46 = EDGE_CURVE ( 'NONE', #1194, #243, #672, .T. ) ;
#47 = FACE_OUTER_BOUND ( 'NONE', #851, .T. ) ;
#48 = CARTESIAN_POINT ( 'NONE',  ( 0.5000000000000000000, -46.14465380825145502, 334.7913824852740845 ) ) ;
#49 = EDGE_CURVE ( 'NONE', #266, #811, #94, .T. ) ;
#50 = ORIENTED_EDGE ( 'NONE', *, *, #83, .T. ) ;
#51 = CIRCLE ( 'NONE', #720, 4.000000000000003553 ) ;
#52 = CARTESIAN_POINT ( 'NONE',  ( -0.5000000000000000000, -4.685847898168133518, 253.6278392544604117 ) ) ;
#53 = AXIS2_PLACEMENT_3D ( 'NONE', #980, #1169, #1054 ) ;
#54 = DIRECTION ( 'NONE',  ( 1.000000000000000000, 0.000000000000000000, 0.000000000000000000 ) ) ;
#55 = CARTESIAN_POINT ( 'NONE',  ( 0.06874370298596303719, 58.43798061185859893, 314.6340238355653582 ) ) ;
#56 = VERTEX_POINT ( 'NONE', #34 ) ;
#57 = DIRECTION ( 'NONE',  ( 0.000000000000000000, 0.000000000000000000, 1.000000000000000000 ) ) ;
#58 = AXIS2_PLACEMENT_3D ( 'NONE', #105, #755, #283 ) ;
#59 = VERTEX_POINT ( 'NONE', #245 ) ;
#60 = CARTESIAN_POINT ( 'NONE',  ( -0.5000000000000000000, 8.758068072423878192, 324.0522416802542125 ) ) ;
#61 = EDGE_CURVE ( 'NONE', #33, #1020, #592, .T. ) ;
#62 = ADVANCED_FACE ( 'NONE', ( #1101 ), #1001, .T. ) ;
#63 = DIRECTION ( 'NONE',  ( -1.000000000000000000, -0.000000000000000000, -0.000000000000000000 ) ) ;
#64 = DIRECTION ( 'NONE',  ( 0.000000000000000000, 0.000000000000000000, -1.000000000000000000 ) ) ;
#65 = EDGE_CURVE ( 'NONE', #33, #684, #2, .T. ) ;
#66 = EDGE_LOOP ( 'NONE', ( #719, #1045, #50, #1187, #707, #122, #637, #127, #778 ) ) ;
#67 = CARTESIAN_POINT ( 'NONE',  ( 0.000000000000000000, -22.23911186159478603, 293.1110839919804221 ) ) ;
#68 = DIRECTION ( 'NONE',  ( 0.000000000000000000, 0.000000000000000000, 1.000000000000000000 ) ) ;
#69 = AXIS2_PLACEMENT_3D ( 'NONE', #333, #310, #441 ) ;
#70 = DIRECTION ( 'NONE',  ( 0.000000000000000000, 0.000000000000000000, -1.000000000000000000 ) ) ;
#71 = CIRCLE ( 'NONE', #602, 71.04489738377667152 ) ;
#72 = VERTEX_POINT ( 'NONE', #1195 ) ;
#73 = CARTESIAN_POINT ( 'NONE',  ( -209.4249691847613803, 9.106350186110812928, 328.7295782107298123 ) ) ;
#74 = LINE ( 'NONE', #52, #822 ) ;
#75 = EDGE_LOOP ( 'NONE', ( #568, #788, #943, #153 ) ) ;
#76 = CARTESIAN_POINT ( 'NONE',  ( -0.5000000000000000000, 55.46078995309925830, 317.3131008752337721 ) ) ;
#77 = AXIS2_PLACEMENT_3D ( 'NONE', #769, #1061, #781 ) ;
#78 = ORIENTED_EDGE ( 'NONE', *, *, #12, .F. ) ;
#79 = DIRECTION ( 'NONE',  ( 0.000000000000000000, -0.07425605938199075773, -0.9972392078358423007 ) ) ;
#80 = LINE ( 'NONE', #206, #660 ) ;
#81 = EDGE_CURVE ( 'NONE', #112, #1041, #616, .T. ) ;
#82 = CLOSED_SHELL ( 'NONE', ( #830, #161, #273, #430, #1007 ) ) ;
#83 = EDGE_CURVE ( 'NONE', #1259, #328, #1252, .T. ) ;
#84 =( BOUNDED_CURVE ( )  B_SPLINE_CURVE ( 3, ( #402, #16, #220, #209 ),
 .UNSPECIFIED., .F., .T. ) 
 B_SPLINE_CURVE_WITH_KNOTS ( ( 4, 4 ),
 ( 4.670968477686073150, 4.698596161053405496 ),
 .UNSPECIFIED. ) 
 CURVE ( )  GEOMETRIC_REPRESENTATION_ITEM ( )  RATIONAL_B_SPLINE_CURVE ( ( 1.000000000000000000, 0.9999363936041152368, 0.9999363936041152368, 1.000000000000000000 ) ) 
 REPRESENTATION_ITEM ( '' )  );
#85 = DIRECTION ( 'NONE',  ( 0.000000000000000000, 0.000000000000000000, -1.000000000000000000 ) ) ;
#86 = VERTEX_POINT ( 'NONE', #514 ) ;
#87 = ORIENTED_EDGE ( 'NONE', *, *, #104, .F. ) ;
#88 = CYLINDRICAL_SURFACE ( 'NONE', #620, 43.42751337495365505 ) ;
#89 = CARTESIAN_POINT ( 'NONE',  ( 0.1281839652589804035, -17.62452443668201241, 311.5621845624340835 ) ) ;
#90 = ORIENTED_EDGE ( 'NONE', *, *, #576, .T. ) ;
#91 = CARTESIAN_POINT ( 'NONE',  ( -10.00000000000000000, 4.658068072423888317, 328.0522416802539283 ) ) ;
#92 = DATE_AND_TIME ( #385, #167 ) ;
#93 = CIRCLE ( 'NONE', #8, 43.42751337495365505 ) ;
#94 = LINE ( 'NONE', #489, #1021 ) ;
#95 = ORIENTED_EDGE ( 'NONE', *, *, #867, .F. ) ;
#96 = DIRECTION ( 'NONE',  ( 0.000000000000000000, 0.000000000000000000, 1.000000000000000000 ) ) ;
#97 = LINE ( 'NONE', #1256, #878 ) ;
#98 = DIRECTION ( 'NONE',  ( 1.000000000000000000, 0.000000000000000000, 0.000000000000000000 ) ) ;
#99 = PERSON_AND_ORGANIZATION_ROLE ( 'design_supplier' ) ;
#100 = ORIENTED_EDGE ( 'NONE', *, *, #504, .F. ) ;
#101 = CARTESIAN_POINT ( 'NONE',  ( -0.5000000000000000000, 57.13040071967886036, 328.0546082069969884 ) ) ;
#102 = LOCAL_TIME ( 1, 20, 13.00000000000000000, #36 ) ;
#103 = B_SPLINE_CURVE_WITH_KNOTS ( 'NONE', 3,
 ( #817, #268, #915, #170, #536, #1116, #368, #55, #1237, #744, #350, #1035, #247, #1136, #733, #910 ),
 .UNSPECIFIED., .F., .F.,
 ( 4, 2, 2, 2, 2, 2, 2, 4 ),
 ( 0.000000000000000000, 0.001211394229956022292, 0.001817091344934033438, 0.002422788459912044584, 0.003028485574890055730, 0.003634182689868066876, 0.004239879804846078022, 0.004845576919824089168 ),
 .UNSPECIFIED. ) ;
#104 = EDGE_CURVE ( 'NONE', #734, #173, #714, .T. ) ;
#105 = CARTESIAN_POINT ( 'NONE',  ( -0.5000000000000000000, -46.14465380825148344, 330.7913824852740845 ) ) ;
#106 = CARTESIAN_POINT ( 'NONE',  ( 0.1579229906464806876, 24.31060597182537109, 336.0301644004083528 ) ) ;
#107 = AXIS2_PLACEMENT_3D ( 'NONE', #279, #764, #869 ) ;
#108 = APPROVAL_DATE_TIME ( #765, #702 ) ;
#109 = VERTEX_POINT ( 'NONE', #134 ) ;
#110 = LINE ( 'NONE', #1073, #1260 ) ;
#111 = DIRECTION ( 'NONE',  ( 0.000000000000000000, -0.07425605938199075773, -0.9972392078358423007 ) ) ;
#112 = VERTEX_POINT ( 'NONE', #227 ) ;
#113 = CARTESIAN_POINT ( 'NONE',  ( 0.3239003491963265979, 59.96441602495674061, 323.9279482072365681 ) ) ;
#114 = EDGE_LOOP ( 'NONE', ( #694, #651, #147, #219, #825, #506, #408, #129, #1098 ) ) ;
#115 = AXIS2_PLACEMENT_3D ( 'NONE', #35, #434, #809 ) ;
#116 = VECTOR ( 'NONE', #54, 1000.000000000000000 ) ;
#117 = CARTESIAN_POINT ( 'NONE',  ( 0.03870417913726848652, -48.52073883102620044, 334.0155298689016945 ) ) ;
#118 = DIRECTION ( 'NONE',  ( 1.000000000000000000, 0.000000000000000000, 0.000000000000000000 ) ) ;
#119 = ORIENTED_EDGE ( 'NONE', *, *, #254, .T. ) ;
#120 = VERTEX_POINT ( 'NONE', #804 ) ;
#121 = COORDINATED_UNIVERSAL_TIME_OFFSET ( 5, 0, .AHEAD. ) ;
#122 = ORIENTED_EDGE ( 'NONE', *, *, #818, .T. ) ;
#123 = CC_DESIGN_PERSON_AND_ORGANIZATION_ASSIGNMENT ( #241, #793, ( #1056 ) ) ;
#124 = PRODUCT_RELATED_PRODUCT_CATEGORY ( 'detail', '', ( #1181 ) ) ;
#125 = DIRECTION ( 'NONE',  ( 0.000000000000000000, -0.9972392078358423007, 0.07425605938199075773 ) ) ;
#126 = PERSON_AND_ORGANIZATION_ROLE ( 'design_owner' ) ;
#127 = ORIENTED_EDGE ( 'NONE', *, *, #389, .T. ) ;
#128 = ADVANCED_FACE ( 'NONE', ( #715 ), #1203, .F. ) ;
#129 = ORIENTED_EDGE ( 'NONE', *, *, #1139, .T. ) ;
#130 = CARTESIAN_POINT ( 'NONE',  ( -0.5000000000000000000, 19.36092000356669729, 313.3131008752337721 ) ) ;
#131 = CARTESIAN_POINT ( 'NONE',  ( 0.1603856994121804214, -50.10321616200457129, 331.4965965056557593 ) ) ;
#132 = CARTESIAN_POINT ( 'NONE',  ( 0.5000000000000000000, -18.30371280700627423, 321.7206106236495202 ) ) ;
#133 = ORIENTED_EDGE ( 'NONE', *, *, #615, .F. ) ;
#134 = CARTESIAN_POINT ( 'NONE',  ( -0.5000000000000000000, 5.714428705934910369, 328.0138199278678712 ) ) ;
#135 = CARTESIAN_POINT ( 'NONE',  ( 0.06874370298596181594, -49.12184446701082408, 333.4704595249424415 ) ) ;
#136 = AXIS2_PLACEMENT_3D ( 'NONE', #1069, #585, #1147 ) ;
#137 = CIRCLE ( 'NONE', #240, 4.000000000000003553 ) ;
#138 = PERSON ( 'UNSPECIFIED', 'UNSPECIFIED', 'UNSPECIFIED', ('UNSPECIFIED'), ('UNSPECIFIED'), ('UNSPECIFIED') ) ;
#139 = APPROVAL_STATUS ( 'not_yet_approved' ) ;
#140 = LINE ( 'NONE', #1212, #1238 ) ;
#141 = VERTEX_POINT ( 'NONE', #709 ) ;
#142 = CARTESIAN_POINT ( 'NONE',  ( -0.5000000000000000000, 4.658068072423872330, 324.0522416802539283 ) ) ;
#143 = PLANE ( 'NONE',  #1067 ) ;
#144 = EDGE_CURVE ( 'NONE', #734, #13, #610, .T. ) ;
#145 = LINE ( 'NONE', #835, #986 ) ;
#146 = DIRECTION ( 'NONE',  ( 0.000000000000000000, 0.000000000000000000, -1.000000000000000000 ) ) ;
#147 = ORIENTED_EDGE ( 'NONE', *, *, #449, .T. ) ;
#148 = ADVANCED_FACE ( 'NONE', ( #336 ), #890, .F. ) ;
#149 = LINE ( 'NONE', #1231, #276 ) ;
#150 = VECTOR ( 'NONE', #721, 1000.000000000000000 ) ;
#151 = DIRECTION ( 'NONE',  ( 0.000000000000000000, -0.2887353815163796189, -0.9574089405581038825 ) ) ;
#152 = B_SPLINE_CURVE_WITH_KNOTS ( 'NONE', 3,
 ( #1117, #106, #500, #873, #6, #784, #1076, #213, #630, #458, #654, #547 ),
 .UNSPECIFIED., .F., .F.,
 ( 4, 2, 2, 2, 2, 4 ),
 ( 0.000000000000000000, 0.002008394078643253953, 0.003012591117964869003, 0.004016788157286484487, 0.006025182235929715455, 0.008033576314572946422 ),
 .UNSPECIFIED. ) ;
#153 = ORIENTED_EDGE ( 'NONE', *, *, #608, .F. ) ;
#154 = CARTESIAN_POINT ( 'NONE',  ( 0.5000000000000000000, -13.17855960994564235, 396.5005517579629668 ) ) ;
#155 = DIRECTION ( 'NONE',  ( 0.000000000000000000, 0.000000000000000000, 1.000000000000000000 ) ) ;
#156 = DIRECTION ( 'NONE',  ( 1.000000000000000000, 0.000000000000000000, 0.000000000000000000 ) ) ;
#157 = ORIENTED_EDGE ( 'NONE', *, *, #244, .F. ) ;
#158 = VECTOR ( 'NONE', #346, 1000.000000000000114 ) ;
#159 = DIRECTION ( 'NONE',  ( 0.000000000000000000, 0.07425605938199074385, 0.9972392078358423007 ) ) ;
#160 = EDGE_CURVE ( 'NONE', #906, #1268, #901, .T. ) ;
#161 = ADVANCED_FACE ( 'NONE', ( #703 ), #20, .T. ) ;
#162 = ORIENTED_EDGE ( 'NONE', *, *, #1199, .F. ) ;
#163 = CARTESIAN_POINT ( 'NONE',  ( -0.5000000000000000000, -46.14465380825145502, 334.7913824852740845 ) ) ;
#164 = CARTESIAN_POINT ( 'NONE',  ( 0.5000000000000000000, 5.714428705934910369, 320.0906634326399853 ) ) ;
#165 = CARTESIAN_POINT ( 'NONE',  ( 0.1758969445890823380, -50.13361063959484909, 331.0884067228020058 ) ) ;
#166 = EDGE_CURVE ( 'NONE', #384, #1218, #969, .T. ) ;
#167 = LOCAL_TIME ( 1, 20, 13.00000000000000000, #881 ) ;
#168 = ORIENTED_EDGE ( 'NONE', *, *, #848, .T. ) ;
#169 = DIRECTION ( 'NONE',  ( 1.000000000000000000, 0.000000000000000000, 0.000000000000000000 ) ) ;
#170 = CARTESIAN_POINT ( 'NONE',  ( 0.1186561709543845627, 59.10304739369684768, 315.6471468186684888 ) ) ;
#171 = AXIS2_PLACEMENT_3D ( 'NONE', #797, #232, #1208 ) ;
#172 = DIRECTION ( 'NONE',  ( 0.000000000000000000, 0.000000000000000000, -1.000000000000000000 ) ) ;
#173 = VERTEX_POINT ( 'NONE', #771 ) ;
#174 = DIRECTION ( 'NONE',  ( 1.000000000000000000, 0.000000000000000000, 0.000000000000000000 ) ) ;
#175 = LINE ( 'NONE', #565, #1221 ) ;
#176 = VECTOR ( 'NONE', #933, 1000.000000000000000 ) ;
#177 = ORIENTED_EDGE ( 'NONE', *, *, #908, .F. ) ;
#178 = AXIS2_PLACEMENT_3D ( 'NONE', #265, #842, #159 ) ;
#179 = CARTESIAN_POINT ( 'NONE',  ( -10.00000000000000000, 4.658068072423887429, 324.0522416802539283 ) ) ;
#180 = ORIENTED_EDGE ( 'NONE', *, *, #740, .F. ) ;
#181 = DIRECTION ( 'NONE',  ( 0.000000000000000000, -0.9972392078358423007, 0.07425605938199075773 ) ) ;
#182 = ADVANCED_FACE ( 'NONE', ( #571 ), #1, .F. ) ;
#183 = EDGE_CURVE ( 'NONE', #1051, #109, #913, .T. ) ;
#184 = CARTESIAN_POINT ( 'NONE',  ( -0.5000000000000000000, 31.55524800644256445, 335.7675625812180442 ) ) ;
#185 = CARTESIAN_POINT ( 'NONE',  ( -0.5000000000000000000, -13.17855960994564235, 396.5005517579629668 ) ) ;
#186 = ORIENTED_EDGE ( 'NONE', *, *, #597, .F. ) ;
#187 = AXIS2_PLACEMENT_3D ( 'NONE', #964, #211, #1003 ) ;
#188 = ORIENTED_EDGE ( 'NONE', *, *, #49, .F. ) ;
#189 = EDGE_CURVE ( 'NONE', #687, #120, #303, .T. ) ;
#190 = DIRECTION ( 'NONE',  ( -1.000000000000000000, 0.000000000000000000, -0.000000000000000000 ) ) ;
#191 = CARTESIAN_POINT ( 'NONE',  ( -0.5000000000000000000, 55.97545919361337496, 324.2249724447645463 ) ) ;
#192 = VERTEX_POINT ( 'NONE', #1063 ) ;
#193 = CARTESIAN_POINT ( 'NONE',  ( -0.5000000000000000000, -4.685847898168133518, 253.6278392544604117 ) ) ;
#194 = CARTESIAN_POINT ( 'NONE',  ( -209.4249691847613803, 0.2097859587369618750, 319.3749051497780442 ) ) ;
#195 = ORIENTED_EDGE ( 'NONE', *, *, #204, .T. ) ;
#196 = DIRECTION ( 'NONE',  ( 1.000000000000000000, 0.000000000000000000, 0.000000000000000000 ) ) ;
#197 = CARTESIAN_POINT ( 'NONE',  ( 0.1698419296040920567, 23.68444989726554439, 335.7675625812180442 ) ) ;
#198 = B_SPLINE_CURVE_WITH_KNOTS ( 'NONE', 3,
 ( #792, #11, #799, #233, #326, #604, #320, #529, #228, #1082 ),
 .UNSPECIFIED., .F., .F.,
 ( 4, 2, 2, 2, 4 ),
 ( 0.000000000000000000, 0.001345878627168019129, 0.002691757254336038258, 0.004037635881504057604, 0.005383514508672076516 ),
 .UNSPECIFIED. ) ;
#199 = DIRECTION ( 'NONE',  ( 1.000000000000000000, 0.000000000000000000, 0.000000000000000000 ) ) ;
#200 = APPROVAL_ROLE ( '' ) ;
#201 = AXIS2_PLACEMENT_3D ( 'NONE', #439, #556, #155 ) ;
#202 = ADVANCED_FACE ( 'NONE', ( #1071 ), #494, .F. ) ;
#203 = ORIENTED_EDGE ( 'NONE', *, *, #589, .F. ) ;
#204 = EDGE_CURVE ( 'NONE', #1189, #141, #296, .T. ) ;
#205 = CARTESIAN_POINT ( 'NONE',  ( -0.5000000000000000000, -50.13361063959484909, 331.0884067228020058 ) ) ;
#206 = CARTESIAN_POINT ( 'NONE',  ( -0.5000000000000000000, 14.00198404301590926, 394.4766441060474449 ) ) ;
#207 = CIRCLE ( 'NONE', #1065, 4.099999999999992539 ) ;
#208 = CARTESIAN_POINT ( 'NONE',  ( -0.5000000000000000000, 8.329631021805921520, 318.2984455790111724 ) ) ;
#209 = CARTESIAN_POINT ( 'NONE',  ( 0.3063895650093351186, 57.13040071967886036, 328.0546082069969884 ) ) ;
#210 = DIRECTION ( 'NONE',  ( 0.000000000000000000, 0.000000000000000000, -1.000000000000000000 ) ) ;
#211 = DIRECTION ( 'NONE',  ( 0.000000000000000000, 0.9972392078358424117, -0.07425605938199077161 ) ) ;
#212 = ORIENTED_EDGE ( 'NONE', *, *, #390, .F. ) ;
#213 = CARTESIAN_POINT ( 'NONE',  ( 0.1230393385021652936, 28.29121213114101252, 336.5595201580244407 ) ) ;
#214 = AXIS2_PLACEMENT_3D ( 'NONE', #896, #807, #438 ) ;
#215 = APPROVAL_DATE_TIME ( #92, #960 ) ;
#216 = CARTESIAN_POINT ( 'NONE',  ( -209.4249691847613803, -50.72341618151335751, 323.1674745282415415 ) ) ;
#217 = DIRECTION ( 'NONE',  ( -1.000000000000000000, -0.000000000000000000, -0.000000000000000000 ) ) ;
#218 = ORIENTED_EDGE ( 'NONE', *, *, #1200, .T. ) ;
#219 = ORIENTED_EDGE ( 'NONE', *, *, #740, .T. ) ;
#220 = CARTESIAN_POINT ( 'NONE',  ( 0.2797466961341117941, 48.60236896416391517, 330.6264919634584203 ) ) ;
#221 = AXIS2_PLACEMENT_3D ( 'NONE', #831, #151, #1232 ) ;
#222 = CARTESIAN_POINT ( 'NONE',  ( 0.1100851401062330759, -49.69688057669259962, 332.6413772057987899 ) ) ;
#223 = DATE_AND_TIME ( #706, #102 ) ;
#224 = EDGE_CURVE ( 'NONE', #662, #33, #1248, .T. ) ;
#225 = ORIENTED_EDGE ( 'NONE', *, *, #1079, .F. ) ;
#226 = ORIENTED_EDGE ( 'NONE', *, *, #1055, .F. ) ;
#227 = CARTESIAN_POINT ( 'NONE',  ( 0.000000000000000000, 19.36092000356670084, 313.3131008752337721 ) ) ;
#228 = CARTESIAN_POINT ( 'NONE',  ( 0.3260957159695869190, 59.99820855428933442, 324.3817729248806927 ) ) ;
#229 = CC_DESIGN_APPROVAL ( #522, ( #1056 ) ) ;
#230 = CARTESIAN_POINT ( 'NONE',  ( 0.000000000000000000, -1.423425257115732201, 331.2248099855891610 ) ) ;
#231 = ORIENTED_EDGE ( 'NONE', *, *, #144, .F. ) ;
#232 = DIRECTION ( 'NONE',  ( 1.224646799147353207E-16, 1.000000000000000000, -0.000000000000000000 ) ) ;
#233 = CARTESIAN_POINT ( 'NONE',  ( 0.3155225072565858713, 58.70261007286153898, 327.1863393120586352 ) ) ;
#234 =( LENGTH_UNIT ( ) NAMED_UNIT ( * ) SI_UNIT ( .MILLI., .METRE. ) );
#235 = DIRECTION ( 'NONE',  ( -0.000000000000000000, 0.07425605938199078548, 0.9972392078358423007 ) ) ;
#236 = ORIENTED_EDGE ( 'NONE', *, *, #29, .F. ) ;
#237 = DIRECTION ( 'NONE',  ( 1.000000000000000000, 0.000000000000000000, -0.000000000000000000 ) ) ;
#238 = CARTESIAN_POINT ( 'NONE',  ( -0.5000000000000000000, -22.23911186159478603, 312.3369207792898123 ) ) ;
#239 = CIRCLE ( 'NONE', #899, 71.04489738377667152 ) ;
#240 = AXIS2_PLACEMENT_3D ( 'NONE', #337, #451, #1109 ) ;
#241 = PERSON_AND_ORGANIZATION ( #138, #611 ) ;
#242 = PLANE ( 'NONE',  #1171 ) ;
#243 = VERTEX_POINT ( 'NONE', #1266 ) ;
#244 = EDGE_CURVE ( 'NONE', #173, #1259, #677, .T. ) ;
#245 = CARTESIAN_POINT ( 'NONE',  ( 0.1698419296040920567, -14.36831375241776776, 312.3369207792898123 ) ) ;
#246 = DIRECTION ( 'NONE',  ( 1.000000000000000000, 0.000000000000000000, 0.000000000000000000 ) ) ;
#247 = CARTESIAN_POINT ( 'NONE',  ( 0.01946753168304913087, 57.32023632140823111, 313.7657010001933600 ) ) ;
#248 = ORIENTED_EDGE ( 'NONE', *, *, #1043, .T. ) ;
#249 = APPROVAL_PERSON_ORGANIZATION ( #1179, #702, #200 ) ;
#250 = DIRECTION ( 'NONE',  ( 1.000000000000000000, 0.000000000000000000, 0.000000000000000000 ) ) ;
#251 = CARTESIAN_POINT ( 'NONE',  ( -0.5000000000000000000, -50.64827988010896576, 324.1765351532712884 ) ) ;
#252 = DIRECTION ( 'NONE',  ( 1.000000000000000000, 0.000000000000000000, 0.000000000000000000 ) ) ;
#253 = ORIENTED_EDGE ( 'NONE', *, *, #292, .F. ) ;
#254 = EDGE_CURVE ( 'NONE', #662, #803, #399, .T. ) ;
#255 = DIRECTION ( 'NONE',  ( 1.000000000000000000, 0.000000000000000000, 0.000000000000000000 ) ) ;
#256 = ORIENTED_EDGE ( 'NONE', *, *, #1178, .T. ) ;
#257 = DIRECTION ( 'NONE',  ( 1.000000000000000000, 0.000000000000000000, 0.000000000000000000 ) ) ;
#258 = DIRECTION ( 'NONE',  ( 0.000000000000000000, -0.07425605938199075773, -0.9972392078358423007 ) ) ;
#259 = ADVANCED_FACE ( 'NONE', ( #756 ), #467, .F. ) ;
#260 = VECTOR ( 'NONE', #1224, 1000.000000000000114 ) ;
#261 = DIRECTION ( 'NONE',  ( 0.000000000000000000, 0.000000000000000000, 1.000000000000000000 ) ) ;
#262 = ORIENTED_EDGE ( 'NONE', *, *, #576, .F. ) ;
#263 = FACE_OUTER_BOUND ( 'NONE', #1235, .T. ) ;
#264 = DIRECTION ( 'NONE',  ( 1.000000000000000000, 0.000000000000000000, 0.000000000000000000 ) ) ;
#265 = CARTESIAN_POINT ( 'NONE',  ( -209.4249691847613803, 0.2097859587369618750, 319.3749051497780442 ) ) ;
#266 = VERTEX_POINT ( 'NONE', #855 ) ;
#267 = DIRECTION ( 'NONE',  ( -1.000000000000000000, -0.000000000000000000, 0.000000000000000000 ) ) ;
#268 = CARTESIAN_POINT ( 'NONE',  ( 0.1603856994121805324, 59.41935230685236036, 316.6078868548521541 ) ) ;
#269 = CARTESIAN_POINT ( 'NONE',  ( 0.9000000000000057954, 4.658068072423887429, 324.0522416802539283 ) ) ;
#270 = DIRECTION ( 'NONE',  ( 1.000000000000000000, 0.000000000000000000, -0.000000000000000000 ) ) ;
#271 = EDGE_CURVE ( 'NONE', #734, #524, #383, .T. ) ;
#272 = ORIENTED_EDGE ( 'NONE', *, *, #888, .T. ) ;
#273 = ADVANCED_FACE ( 'NONE', ( #372 ), #1042, .T. ) ;
#274 = CYLINDRICAL_SURFACE ( 'NONE', #1090, 10.17550985523557650 ) ;
#275 = PLANE ( 'NONE',  #782 ) ;
#276 = VECTOR ( 'NONE', #169, 1000.000000000000000 ) ;
#277 = ORIENTED_EDGE ( 'NONE', *, *, #854, .F. ) ;
#278 = AXIS2_PLACEMENT_3D ( 'NONE', #559, #553, #261 ) ;
#279 = CARTESIAN_POINT ( 'NONE',  ( -0.5000000000000000000, 22.49469575479341898, 251.6039316025449182 ) ) ;
#280 = ADVANCED_FACE ( 'NONE', ( #1258 ), #942, .T. ) ;
#281 = ORIENTED_EDGE ( 'NONE', *, *, #1241, .T. ) ;
#282 = CYLINDRICAL_SURFACE ( 'NONE', #1012, 4.000000000000003553 ) ;
#283 = DIRECTION ( 'NONE',  ( 0.000000000000000000, 0.000000000000000000, 1.000000000000000000 ) ) ;
#284 = VERTEX_POINT ( 'NONE', #1150 ) ;
#285 = FACE_OUTER_BOUND ( 'NONE', #1149, .T. ) ;
#286 = PERSON_AND_ORGANIZATION_ROLE ( 'creator' ) ;
#287 = CC_DESIGN_APPROVAL ( #960, ( #808 ) ) ;
#288 = DIRECTION ( 'NONE',  ( 0.000000000000000000, 0.07425605938199075773, 0.9972392078358423007 ) ) ;
#289 = VERTEX_POINT ( 'NONE', #1049 ) ;
#290 = CARTESIAN_POINT ( 'NONE',  ( -0.5000000000000000000, -47.81426457483108550, 320.0498751535108681 ) ) ;
#291 = DIRECTION ( 'NONE',  ( 0.000000000000000000, 0.000000000000000000, -1.000000000000000000 ) ) ;
#292 = EDGE_CURVE ( 'NONE', #998, #687, #642, .T. ) ;
#293 = ORIENTED_EDGE ( 'NONE', *, *, #542, .F. ) ;
#294 = ADVANCED_FACE ( 'NONE', ( #285 ), #577, .F. ) ;
#295 = CC_DESIGN_PERSON_AND_ORGANIZATION_ASSIGNMENT ( #417, #126, ( #1181 ) ) ;
#296 = LINE ( 'NONE', #975, #930 ) ;
#297 = PERSON_AND_ORGANIZATION ( #138, #611 ) ;
#298 = ORIENTED_EDGE ( 'NONE', *, *, #527, .T. ) ;
#299 = CARTESIAN_POINT ( 'NONE',  ( 0.3260957159695869190, -50.68207240944156666, 323.7227104356271639 ) ) ;
#300 = FACE_OUTER_BOUND ( 'NONE', #560, .T. ) ;
#301 = EDGE_CURVE ( 'NONE', #856, #1020, #207, .T. ) ;
#302 = AXIS2_PLACEMENT_3D ( 'NONE', #636, #252, #738 ) ;
#303 = LINE ( 'NONE', #208, #1190 ) ;
#304 = CALENDAR_DATE ( 2026, 21, 9 ) ;
#305 = AXIS2_PLACEMENT_3D ( 'NONE', #1141, #652, #1245 ) ;
#306 = ORIENTED_EDGE ( 'NONE', *, *, #589, .T. ) ;
#307 = CARTESIAN_POINT ( 'NONE',  ( 0.5000000000000000000, 4.658068072423872330, 324.0522416802539283 ) ) ;
#308 = EDGE_LOOP ( 'NONE', ( #95, #806, #298, #474, #18 ) ) ;
#309 = PRODUCT_DEFINITION_SHAPE ( 'NONE', 'NONE',  #1056 ) ;
#310 = DIRECTION ( 'NONE',  ( 1.000000000000000000, 0.000000000000000000, 0.000000000000000000 ) ) ;
#311 = EDGE_LOOP ( 'NONE', ( #78, #513, #844, #186 ) ) ;
#312 = DIRECTION ( 'NONE',  ( 0.000000000000000000, 0.000000000000000000, -1.000000000000000000 ) ) ;
#313 = DIRECTION ( 'NONE',  ( 0.000000000000000000, -0.9972392078358423007, 0.07425605938199075773 ) ) ;
#314 = ORIENTED_EDGE ( 'NONE', *, *, #1222, .F. ) ;
#315 = ORIENTED_EDGE ( 'NONE', *, *, #21, .F. ) ;
#316 = AXIS2_PLACEMENT_3D ( 'NONE', #28, #533, #1013 ) ;
#317 = VERTEX_POINT ( 'NONE', #905 ) ;
#318 = ADVANCED_FACE ( 'NONE', ( #819 ), #242, .T. ) ;
#319 = ADVANCED_FACE ( 'NONE', ( #37 ), #1110, .T. ) ;
#320 = CARTESIAN_POINT ( 'NONE',  ( 0.3254615686274541786, 59.71865230182373097, 325.7066806889497457 ) ) ;
#321 = CARTESIAN_POINT ( 'NONE',  ( -0.5000000000000000000, 55.46078995309922988, 313.3131008752337721 ) ) ;
#322 = EDGE_LOOP ( 'NONE', ( #538, #90, #695, #1105 ) ) ;
#323 = VERTEX_POINT ( 'NONE', #727 ) ;
#324 = DIRECTION ( 'NONE',  ( -1.000000000000000000, -0.000000000000000000, -0.000000000000000000 ) ) ;
#325 = VECTOR ( 'NONE', #174, 1000.000000000000000 ) ;
#326 = CARTESIAN_POINT ( 'NONE',  ( 0.3185181309624286472, 59.01530306334193199, 326.8643561726499343 ) ) ;
#327 = APPROVAL_STATUS ( 'not_yet_approved' ) ;
#328 = VERTEX_POINT ( 'NONE', #689 ) ;
#329 = ORIENTED_EDGE ( 'NONE', *, *, #1043, .F. ) ;
#330 = DIRECTION ( 'NONE',  ( 1.000000000000000000, 0.000000000000000000, 0.000000000000000000 ) ) ;
#331 = DIRECTION ( 'NONE',  ( 1.000000000000000000, 0.000000000000000000, 0.000000000000000000 ) ) ;
#332 = CIRCLE ( 'NONE', #887, 10.17550985523557650 ) ;
#333 = CARTESIAN_POINT ( 'NONE',  ( 0.000000000000000000, 4.658068072423887429, 324.0522416802539283 ) ) ;
#334 = ORIENTED_EDGE ( 'NONE', *, *, #413, .T. ) ;
#335 = EDGE_CURVE ( 'NONE', #684, #33, #985, .T. ) ;
#336 = FACE_OUTER_BOUND ( 'NONE', #1267, .T. ) ;
#337 = CARTESIAN_POINT ( 'NONE',  ( -10.00000000000000000, 4.658068072423887429, 324.0522416802539283 ) ) ;
#338 = APPROVAL_DATE_TIME ( #223, #522 ) ;
#339 = CARTESIAN_POINT ( 'NONE',  ( -0.5000000000000000000, 59.96441602495674061, 323.9279482072365681 ) ) ;
#340 = VERTEX_POINT ( 'NONE', #113 ) ;
#341 = CARTESIAN_POINT ( 'NONE',  ( -0.5000000000000000000, 22.49469575479341898, 251.6039316025449182 ) ) ;
#342 = CARTESIAN_POINT ( 'NONE',  ( -0.5000000000000000000, 3.601707438912865378, 320.0906634326399853 ) ) ;
#343 = CIRCLE ( 'NONE', #1242, 43.42751337495365505 ) ;
#344 = CIRCLE ( 'NONE', #762, 209.7513101736959982 ) ;
#345 = CARTESIAN_POINT ( 'NONE',  ( 0.5000000000000000000, -46.14465380825148344, 330.7913824852740845 ) ) ;
#346 = DIRECTION ( 'NONE',  ( 0.000000000000000000, 0.9574089405581037715, -0.2887353815163795634 ) ) ;
#347 = ORIENTED_EDGE ( 'NONE', *, *, #1263, .F. ) ;
#348 = DIRECTION ( 'NONE',  ( 1.000000000000000000, 0.000000000000000000, 0.000000000000000000 ) ) ;
#349 = FACE_OUTER_BOUND ( 'NONE', #322, .T. ) ;
#350 = CARTESIAN_POINT ( 'NONE',  ( 0.03870417913726903469, 57.83687497587401083, 314.0889534916061621 ) ) ;
#351 = EDGE_LOOP ( 'NONE', ( #480, #1206, #766 ) ) ;
#352 = CIRCLE ( 'NONE', #1112, 4.000000000000003553 ) ;
#353 = SPHERICAL_SURFACE ( 'NONE', #508, 4.099999999999994316 ) ;
#354 = EDGE_CURVE ( 'NONE', #512, #687, #400, .T. ) ;
#355 = ORIENTED_EDGE ( 'NONE', *, *, #520, .T. ) ;
#356 = LINE ( 'NONE', #725, #260 ) ;
#357 = DIRECTION ( 'NONE',  ( 0.000000000000000000, 0.000000000000000000, -1.000000000000000000 ) ) ;
#358 = CARTESIAN_POINT ( 'NONE',  ( -0.5000000000000000000, 31.55524800644256445, 335.7675625812180442 ) ) ;
#359 = ORIENTED_EDGE ( 'NONE', *, *, #557, .F. ) ;
#360 = CARTESIAN_POINT ( 'NONE',  ( 0.5000000000000000000, 31.55524800644256445, 335.7675625812180442 ) ) ;
#361 = AXIS2_PLACEMENT_3D ( 'NONE', #805, #1089, #883 ) ;
#362 = PLANE ( 'NONE',  #1044 ) ;
#363 = CIRCLE ( 'NONE', #305, 4.099999999999992539 ) ;
#364 = DIRECTION ( 'NONE',  ( 0.000000000000000000, 0.07425605938199075773, 0.9972392078358423007 ) ) ;
#365 = B_SPLINE_CURVE_WITH_KNOTS ( 'NONE', 3,
 ( #1209, #685, #926, #639, #823, #443 ),
 .UNSPECIFIED., .F., .F.,
 ( 4, 2, 4 ),
 ( 0.000000000000000000, 0.008015455905730837008, 0.01603091181146167055 ),
 .UNSPECIFIED. ) ;
#366 = ORIENTED_EDGE ( 'NONE', *, *, #419, .F. ) ;
#367 = CARTESIAN_POINT ( 'NONE',  ( -0.5000000000000000000, 4.658068072423903416, 324.0522416802539283 ) ) ;
#368 = CARTESIAN_POINT ( 'NONE',  ( 0.08499582931518580298, 58.69364748544533228, 314.9488356239061773 ) ) ;
#369 = CARTESIAN_POINT ( 'NONE',  ( 0.9000000000000060174, 4.658068072423887429, 328.1522416802538942 ) ) ;
#370 = AXIS2_PLACEMENT_3D ( 'NONE', #1192, #313, #787 ) ;
#371 = EDGE_CURVE ( 'NONE', #141, #468, #140, .T. ) ;
#372 = FACE_OUTER_BOUND ( 'NONE', #931, .T. ) ;
#373 = ORIENTED_EDGE ( 'NONE', *, *, #990, .F. ) ;
#374 = LINE ( 'NONE', #101, #680 ) ;
#375 = AXIS2_PLACEMENT_3D ( 'NONE', #862, #965, #487 ) ;
#376 = CARTESIAN_POINT ( 'NONE',  ( 0.1579229906464806876, -14.99446982697760333, 312.0743189600993333 ) ) ;
#377 = EDGE_CURVE ( 'NONE', #468, #981, #352, .T. ) ;
#378 = CARTESIAN_POINT ( 'NONE',  ( -10.00000000000000000, 4.658068072423887429, 324.0522416802539283 ) ) ;
#379 = VERTEX_POINT ( 'NONE', #1016 ) ;
#380 = CARTESIAN_POINT ( 'NONE',  ( -0.5000000000000000000, -22.23911186159478603, 293.1110839919804221 ) ) ;
#381 = CARTESIAN_POINT ( 'NONE',  ( 0.1698419296040920567, -14.36831375241776776, 312.3369207792898123 ) ) ;
#382 = AXIS2_PLACEMENT_3D ( 'NONE', #984, #125, #521 ) ;
#383 = LINE ( 'NONE', #193, #812 ) ;
#384 = VERTEX_POINT ( 'NONE', #537 ) ;
#385 = CALENDAR_DATE ( 2026, 21, 9 ) ;
#386 = PLANE ( 'NONE',  #1127 ) ;
#387 = ORIENTED_EDGE ( 'NONE', *, *, #65, .F. ) ;
#388 = CARTESIAN_POINT ( 'NONE',  ( 0.3239003491963265979, -50.64827988010896576, 324.1765351532712884 ) ) ;
#389 = EDGE_CURVE ( 'NONE', #1126, #1262, #911, .T. ) ;
#390 = EDGE_CURVE ( 'NONE', #708, #379, #507, .T. ) ;
#391 = FACE_OUTER_BOUND ( 'NONE', #418, .T. ) ;
#392 = DIRECTION ( 'NONE',  ( 1.000000000000000000, 0.000000000000000000, 0.000000000000000000 ) ) ;
#393 = AXIS2_PLACEMENT_3D ( 'NONE', #191, #1251, #586 ) ;
#394 = ORIENTED_EDGE ( 'NONE', *, *, #597, .T. ) ;
#395 = ORIENTED_EDGE ( 'NONE', *, *, #389, .F. ) ;
#396 = EDGE_CURVE ( 'NONE', #1218, #323, #152, .T. ) ;
#397 = CARTESIAN_POINT ( 'NONE',  ( -0.5000000000000000000, 0.9865051230418531159, 329.8060377814966841 ) ) ;
#398 = FACE_OUTER_BOUND ( 'NONE', #472, .T. ) ;
#399 = CIRCLE ( 'NONE', #650, 4.000000000000003553 ) ;
#400 = B_SPLINE_CURVE_WITH_KNOTS ( 'NONE', 3,
 ( #594, #810, #982, #625 ),
 .UNSPECIFIED., .F., .F.,
 ( 4, 4 ),
 ( 3.471028403095961450E-18, 0.002797311502917627923 ),
 .UNSPECIFIED. ) ;
#401 = DIRECTION ( 'NONE',  ( 0.000000000000000000, 0.07425605938199075773, 0.9972392078358423007 ) ) ;
#402 = CARTESIAN_POINT ( 'NONE',  ( 0.1464359511856865304, 31.55524800644256445, 335.7675625812180442 ) ) ;
#403 = DIRECTION ( 'NONE',  ( 0.000000000000000000, 0.000000000000000000, -1.000000000000000000 ) ) ;
#404 = CARTESIAN_POINT ( 'NONE',  ( 0.1464359511856865304, -22.23911186159478603, 312.3369207792898123 ) ) ;
#405 = VECTOR ( 'NONE', #617, 1000.000000000000000 ) ;
#406 = CARTESIAN_POINT ( 'NONE',  ( -0.5000000000000000000, 0.1859943648174142150, 319.0553903455864884 ) ) ;
#407 = VECTOR ( 'NONE', #246, 1000.000000000000000 ) ;
#408 = ORIENTED_EDGE ( 'NONE', *, *, #377, .T. ) ;
#409 = CARTESIAN_POINT ( 'NONE',  ( 0.08499582931518470663, -49.37751134059755032, 333.1556477366017361 ) ) ;
#410 = MECHANICAL_CONTEXT ( 'NONE', #563, 'mechanical' ) ;
#411 = ORIENTED_EDGE ( 'NONE', *, *, #83, .F. ) ;
#412 = DIRECTION ( 'NONE',  ( 0.000000000000000000, 0.07425605938199077161, 0.9972392078358423007 ) ) ;
#413 = EDGE_CURVE ( 'NONE', #284, #998, #145, .T. ) ;
#414 = EDGE_CURVE ( 'NONE', #1189, #555, #103, .T. ) ;
#415 = EDGE_LOOP ( 'NONE', ( #584, #1254, #1093 ) ) ;
#416 = CARTESIAN_POINT ( 'NONE',  ( 0.5000000000000000000, -46.65932304876560011, 323.8795109157433103 ) ) ;
#417 = PERSON_AND_ORGANIZATION ( #138, #611 ) ;
#418 = EDGE_LOOP ( 'NONE', ( #355, #593, #1004, #958 ) ) ;
#419 = EDGE_CURVE ( 'NONE', #328, #916, #540, .T. ) ;
#420 = ORIENTED_EDGE ( 'NONE', *, *, #848, .F. ) ;
#421 = CARTESIAN_POINT ( 'NONE',  ( -0.5000000000000000000, -18.30371280700627423, 321.7206106236495202 ) ) ;
#422 = CYLINDRICAL_SURFACE ( 'NONE', #361, 43.42751337495365505 ) ;
#423 = ORIENTED_EDGE ( 'NONE', *, *, #940, .F. ) ;
#424 = ORIENTED_EDGE ( 'NONE', *, *, #29, .T. ) ;
#425 = CARTESIAN_POINT ( 'NONE',  ( 0.5000000000000000000, -22.23911186159478603, 293.1110839919804221 ) ) ;
#426 = CIRCLE ( 'NONE', #31, 4.000000000000003553 ) ;
#427 = FACE_OUTER_BOUND ( 'NONE', #1038, .T. ) ;
#428 = MANIFOLD_SOLID_BREP ( 'Dome1', #82 ) ;
#429 = CARTESIAN_POINT ( 'NONE',  ( 0.000000000000000000, -47.24583478040015905, 334.6368214025601446 ) ) ;
#430 = ADVANCED_FACE ( 'NONE', ( #1019 ), #362, .F. ) ;
#431 = ADVANCED_FACE ( 'NONE', ( #446 ), #647, .F. ) ;
#432 = EDGE_LOOP ( 'NONE', ( #1193, #329, #753, #747, #1202, #1152 ) ) ;
#433 = DIRECTION ( 'NONE',  ( 1.000000000000000000, 0.000000000000000000, 0.000000000000000000 ) ) ;
#434 = DIRECTION ( 'NONE',  ( 1.000000000000000000, 0.000000000000000000, 0.000000000000000000 ) ) ;
#435 = LINE ( 'NONE', #877, #1207 ) ;
#436 = CARTESIAN_POINT ( 'NONE',  ( 0.9000000000000057954, 4.658068072423887429, 324.0522416802539283 ) ) ;
#437 = ORIENTED_EDGE ( 'NONE', *, *, #966, .F. ) ;
#438 = DIRECTION ( 'NONE',  ( 0.000000000000000000, 0.000000000000000000, -1.000000000000000000 ) ) ;
#439 = CARTESIAN_POINT ( 'NONE',  ( 0.5000000000000000000, 27.61984895185404909, 326.3838727368583363 ) ) ;
#440 = DIRECTION ( 'NONE',  ( 0.000000000000000000, 0.000000000000000000, -1.000000000000000000 ) ) ;
#441 = DIRECTION ( 'NONE',  ( 0.000000000000000000, 0.000000000000000000, -1.000000000000000000 ) ) ;
#442 = EDGE_LOOP ( 'NONE', ( #162, #1059, #395, #820 ) ) ;
#443 = CARTESIAN_POINT ( 'NONE',  ( 0.1698419296040920567, -14.36831375241776776, 312.3369207792898123 ) ) ;
#444 = AXIS2_PLACEMENT_3D ( 'NONE', #416, #30, #210 ) ;
#445 = AXIS2_PLACEMENT_3D ( 'NONE', #154, #255, #64 ) ;
#446 = FACE_OUTER_BOUND ( 'NONE', #351, .T. ) ;
#447 = ORIENTED_EDGE ( 'NONE', *, *, #667, .T. ) ;
#448 = DIRECTION ( 'NONE',  ( 1.000000000000000000, 0.000000000000000000, 0.000000000000000000 ) ) ;
#449 = EDGE_CURVE ( 'NONE', #450, #1041, #93, .T. ) ;
#450 = VERTEX_POINT ( 'NONE', #164 ) ;
#451 = DIRECTION ( 'NONE',  ( 1.000000000000000000, 0.000000000000000000, 0.000000000000000000 ) ) ;
#452 = FACE_OUTER_BOUND ( 'NONE', #442, .T. ) ;
#453 = SECURITY_CLASSIFICATION ( '', '', #1077 ) ;
#454 = DIRECTION ( 'NONE',  ( -1.000000000000000000, -0.000000000000000000, -0.000000000000000000 ) ) ;
#455 = EDGE_LOOP ( 'NONE', ( #601, #864, #168, #1033 ) ) ;
#456 = PLANE ( 'NONE',  #658 ) ;
#457 = B_SPLINE_CURVE_WITH_KNOTS ( 'NONE', 3,
 ( #970, #1168, #1060, #569 ),
 .UNSPECIFIED., .F., .F.,
 ( 4, 4 ),
 ( 0.000000000000000000, 0.0006090723967414506720 ),
 .UNSPECIFIED. ) ;
#458 = CARTESIAN_POINT ( 'NONE',  ( 0.1309710304835659256, 30.27551683034116436, 336.2296920005355219 ) ) ;
#459 = FACE_OUTER_BOUND ( 'NONE', #838, .T. ) ;
#460 = ORIENTED_EDGE ( 'NONE', *, *, #377, .F. ) ;
#461 = SPHERICAL_SURFACE ( 'NONE', #700, 4.099999999999994316 ) ;
#462 = AXIS2_PLACEMENT_3D ( 'NONE', #612, #331, #312 ) ;
#463 = CARTESIAN_POINT ( 'NONE',  ( -0.5000000000000000000, 3.601707438912865378, 320.0906634326399853 ) ) ;
#464 = CIRCLE ( 'NONE', #9, 4.000000000000003553 ) ;
#465 = CARTESIAN_POINT ( 'NONE',  ( 0.2593906436214876710, 8.712853581113318313, 323.4450230388058003 ) ) ;
#466 = ORIENTED_EDGE ( 'NONE', *, *, #1006, .F. ) ;
#467 = PLANE ( 'NONE',  #107 ) ;
#468 = VERTEX_POINT ( 'NONE', #921 ) ;
#469 = ADVANCED_FACE ( 'NONE', ( #452 ), #558, .T. ) ;
#470 = DIRECTION ( 'NONE',  ( 0.000000000000000000, 0.000000000000000000, 1.000000000000000000 ) ) ;
#471 = DIRECTION ( 'NONE',  ( 1.000000000000000000, 0.000000000000000000, 0.000000000000000000 ) ) ;
#472 = EDGE_LOOP ( 'NONE', ( #518, #1072, #968, #999, #566, #1140, #100, #1213, #253, #1185, #314 ) ) ;
#473 = DIRECTION ( 'NONE',  ( 0.000000000000000000, 0.000000000000000000, -1.000000000000000000 ) ) ;
#474 = ORIENTED_EDGE ( 'NONE', *, *, #505, .F. ) ;
#475 = FACE_OUTER_BOUND ( 'NONE', #992, .T. ) ;
#476 = AXIS2_PLACEMENT_3D ( 'NONE', #425, #519, #39 ) ;
#477 = CARTESIAN_POINT ( 'NONE',  ( -0.5000000000000000000, 4.658068072423903416, 324.0522416802539283 ) ) ;
#478 = ORIENTED_EDGE ( 'NONE', *, *, #776, .T. ) ;
#479 = DIRECTION ( 'NONE',  ( 0.000000000000000000, 0.9972392078358424117, -0.07425605938199077161 ) ) ;
#480 = ORIENTED_EDGE ( 'NONE', *, *, #1178, .F. ) ;
#481 = EDGE_CURVE ( 'NONE', #173, #524, #343, .T. ) ;
#482 = VERTEX_POINT ( 'NONE', #463 ) ;
#483 = DIRECTION ( 'NONE',  ( -1.000000000000000000, -0.000000000000000000, -0.000000000000000000 ) ) ;
#484 = CARTESIAN_POINT ( 'NONE',  ( 0.1309710304835659256, -20.95938068549338240, 311.8747913599723915 ) ) ;
#485 = CIRCLE ( 'NONE', #525, 4.000000000000003553 ) ;
#486 = ORIENTED_EDGE ( 'NONE', *, *, #745, .T. ) ;
#487 = DIRECTION ( 'NONE',  ( 0.000000000000000000, 0.000000000000000000, -1.000000000000000000 ) ) ;
#488 = EDGE_CURVE ( 'NONE', #1051, #811, #841, .T. ) ;
#489 = CARTESIAN_POINT ( 'NONE',  ( -0.5000000000000000000, 8.758068072423878192, 324.0522416802542125 ) ) ;
#490 = ORIENTED_EDGE ( 'NONE', *, *, #301, .T. ) ;
#491 = CARTESIAN_POINT ( 'NONE',  ( 0.3185181309624286472, -49.69916691849415002, 321.2401271878579223 ) ) ;
#492 = AXIS2_PLACEMENT_3D ( 'NONE', #76, #849, #1253 ) ;
#493 = FACE_OUTER_BOUND ( 'NONE', #308, .T. ) ;
#494 = PLANE ( 'NONE',  #1103 ) ;
#495 = CALENDAR_DATE ( 2026, 21, 9 ) ;
#496 = EDGE_LOOP ( 'NONE', ( #262, #490, #619, #1011 ) ) ;
#497 = CARTESIAN_POINT ( 'NONE',  ( -10.00000000000000000, 4.658068072423887429, 320.0522416802539283 ) ) ;
#498 = CARTESIAN_POINT ( 'NONE',  ( 0.000000000000000000, -46.14465380825145502, 334.7913824852740845 ) ) ;
#499 = AXIS2_PLACEMENT_3D ( 'NONE', #142, #330, #814 ) ;
#500 = CARTESIAN_POINT ( 'NONE',  ( 0.1478724910569633455, 24.95224546563602530, 336.2263018225694395 ) ) ;
#501 = ORIENTED_EDGE ( 'NONE', *, *, #798, .T. ) ;
#502 = CARTESIAN_POINT ( 'NONE',  ( 0.003955977724610138663, -47.44269405681890106, 334.5804487246822987 ) ) ;
#503 = FACE_OUTER_BOUND ( 'NONE', #898, .T. ) ;
#504 = EDGE_CURVE ( 'NONE', #512, #555, #1246, .T. ) ;
#505 = EDGE_CURVE ( 'NONE', #916, #86, #51, .T. ) ;
#506 = ORIENTED_EDGE ( 'NONE', *, *, #371, .T. ) ;
#507 = LINE ( 'NONE', #406, #561 ) ;
#508 = AXIS2_PLACEMENT_3D ( 'NONE', #269, #641, #348 ) ;
#509 = FACE_OUTER_BOUND ( 'NONE', #925, .T. ) ;
#510 = CARTESIAN_POINT ( 'NONE',  ( -0.5000000000000000000, 0.1859943648174142150, 319.0553903455864884 ) ) ;
#511 = EDGE_CURVE ( 'NONE', #1084, #56, #239, .T. ) ;
#512 = VERTEX_POINT ( 'NONE', #1216 ) ;
#513 = ORIENTED_EDGE ( 'NONE', *, *, #1027, .T. ) ;
#514 = CARTESIAN_POINT ( 'NONE',  ( 0.5000000000000000000, -50.13361063959484909, 331.0884067228020058 ) ) ;
#515 = CARTESIAN_POINT ( 'NONE',  ( 0.02557306406685351183, -48.18340446307678349, 334.2387586112947133 ) ) ;
#516 = DIRECTION ( 'NONE',  ( 1.000000000000000000, 0.000000000000000000, 0.000000000000000000 ) ) ;
#517 = ORIENTED_EDGE ( 'NONE', *, *, #189, .F. ) ;
#518 = ORIENTED_EDGE ( 'NONE', *, *, #166, .T. ) ;
#519 = DIRECTION ( 'NONE',  ( 1.000000000000000000, 0.000000000000000000, 0.000000000000000000 ) ) ;
#520 = EDGE_CURVE ( 'NONE', #948, #524, #726, .T. ) ;
#521 = DIRECTION ( 'NONE',  ( 0.000000000000000000, -0.07425605938199075773, -0.9972392078358423007 ) ) ;
#522 = APPROVAL ( #139, 'UNSPECIFIED' ) ;
#523 = CARTESIAN_POINT ( 'NONE',  ( 0.06536543462215549383, 0.9865051230418462325, 329.8060377814966841 ) ) ;
#524 = VERTEX_POINT ( 'NONE', #397 ) ;
#525 = AXIS2_PLACEMENT_3D ( 'NONE', #1023, #40, #1034 ) ;
#526 = DIRECTION ( 'NONE',  ( 0.000000000000000000, 0.000000000000000000, 1.000000000000000000 ) ) ;
#527 = EDGE_CURVE ( 'NONE', #1087, #86, #1052, .T. ) ;
#528 = VECTOR ( 'NONE', #655, 1000.000000000000000 ) ;
#529 = CARTESIAN_POINT ( 'NONE',  ( 0.3267487435667849605, 59.95578232211860126, 324.8282814525922504 ) ) ;
#530 = APPROVAL_ROLE ( '' ) ;
#531 = DIRECTION ( 'NONE',  ( 0.000000000000000000, 0.000000000000000000, 1.000000000000000000 ) ) ;
#532 = EDGE_LOOP ( 'NONE', ( #791, #447, #1075, #767 ) ) ;
#533 = DIRECTION ( 'NONE',  ( 1.000000000000000000, 0.000000000000000000, 0.000000000000000000 ) ) ;
#534 = DIRECTION ( 'NONE',  ( -1.000000000000000000, -0.000000000000000000, 0.000000000000000000 ) ) ;
#535 = B_SPLINE_CURVE_WITH_KNOTS ( 'NONE', 3,
 ( #917, #1227, #1138, #1128 ),
 .UNSPECIFIED., .F., .F.,
 ( 4, 4 ),
 ( 0.000000000000000000, 0.0006090723967414506720 ),
 .UNSPECIFIED. ) ;
#536 = CARTESIAN_POINT ( 'NONE',  ( 0.1100851401062337420, 59.01301672154038158, 315.4631061547091235 ) ) ;
#537 = CARTESIAN_POINT ( 'NONE',  ( 0.3260962805466949277, 9.130141780030353260, 329.0490930149213682 ) ) ;
#538 = ORIENTED_EDGE ( 'NONE', *, *, #301, .F. ) ;
#539 = DIRECTION ( 'NONE',  ( 0.000000000000000000, 0.000000000000000000, 1.000000000000000000 ) ) ;
#540 = LINE ( 'NONE', #48, #176 ) ;
#541 = VERTEX_POINT ( 'NONE', #1250 ) ;
#542 = EDGE_CURVE ( 'NONE', #713, #1259, #546, .T. ) ;
#543 = CARTESIAN_POINT ( 'NONE',  ( 0.3063895650093351186, 57.13040071967886036, 328.0546082069969884 ) ) ;
#544 = ADVANCED_FACE ( 'NONE', ( #475 ), #282, .T. ) ;
#545 = LINE ( 'NONE', #919, #116 ) ;
#546 = CIRCLE ( 'NONE', #837, 4.099999999999992539 ) ;
#547 = CARTESIAN_POINT ( 'NONE',  ( 0.1464359511856865304, 31.55524800644256445, 335.7675625812180442 ) ) ;
#548 = ORIENTED_EDGE ( 'NONE', *, *, #889, .F. ) ;
#549 = DIRECTION ( 'NONE',  ( 0.000000000000000000, 0.07425605938199072997, 0.9972392078358423007 ) ) ;
#550 = ORIENTED_EDGE ( 'NONE', *, *, #46, .F. ) ;
#551 = DIRECTION ( 'NONE',  ( -1.000000000000000000, -0.000000000000000000, 0.000000000000000000 ) ) ;
#552 = CARTESIAN_POINT ( 'NONE',  ( -10.00000000000000000, 4.658068072423887429, 324.0522416802539283 ) ) ;
#553 = DIRECTION ( 'NONE',  ( -1.000000000000000000, 0.000000000000000000, 0.000000000000000000 ) ) ;
#554 = CIRCLE ( 'NONE', #1037, 209.7513101736959129 ) ;
#555 = VERTEX_POINT ( 'NONE', #1174 ) ;
#556 = DIRECTION ( 'NONE',  ( 1.000000000000000000, 0.000000000000000000, -0.000000000000000000 ) ) ;
#557 = EDGE_CURVE ( 'NONE', #573, #112, #865, .T. ) ;
#558 = PLANE ( 'NONE',  #221 ) ;
#559 = CARTESIAN_POINT ( 'NONE',  ( -0.5000000000000000000, 22.49469575479341898, 251.6039316025449182 ) ) ;
#560 = EDGE_LOOP ( 'NONE', ( #991, #394, #460, #1157 ) ) ;
#561 = VECTOR ( 'NONE', #880, 1000.000000000000000 ) ;
#562 = FACE_OUTER_BOUND ( 'NONE', #912, .T. ) ;
#563 = APPLICATION_CONTEXT ( 'configuration controlled 3d designs of mechanical parts and assemblies' ) ;
#564 = CIRCLE ( 'NONE', #178, 209.7513101736959982 ) ;
#565 = CARTESIAN_POINT ( 'NONE',  ( -0.5000000000000000000, -14.36831375241776421, 312.3369207792898123 ) ) ;
#566 = ORIENTED_EDGE ( 'NONE', *, *, #1081, .T. ) ;
#567 = DIRECTION ( 'NONE',  ( 1.000000000000000000, 0.000000000000000000, 0.000000000000000000 ) ) ;
#568 = ORIENTED_EDGE ( 'NONE', *, *, #889, .T. ) ;
#569 = CARTESIAN_POINT ( 'NONE',  ( 0.2738942888682316390, 0.5580680724238951118, 324.0522416802536441 ) ) ;
#570 = CARTESIAN_POINT ( 'NONE',  ( 0.1464359511856865304, -22.23911186159478603, 312.3369207792898123 ) ) ;
#571 = FACE_OUTER_BOUND ( 'NONE', #432, .T. ) ;
#572 = ORIENTED_EDGE ( 'NONE', *, *, #49, .T. ) ;
#573 = VERTEX_POINT ( 'NONE', #953 ) ;
#574 = CARTESIAN_POINT ( 'NONE',  ( 0.3254615686274541786, -50.40251615697595611, 322.3978026715581677 ) ) ;
#575 = PLANE ( 'NONE',  #53 ) ;
#576 = EDGE_CURVE ( 'NONE', #856, #684, #821, .T. ) ;
#577 = PLANE ( 'NONE',  #1137 ) ;
#578 = CARTESIAN_POINT ( 'NONE',  ( 0.000000000000000000, -46.14465380825145502, 334.7913824852740845 ) ) ;
#579 = ORIENTED_EDGE ( 'NONE', *, *, #1062, .F. ) ;
#580 = CARTESIAN_POINT ( 'NONE',  ( 0.3155225072565858713, -49.38647392801376412, 320.9181440484492214 ) ) ;
#581 = DIRECTION ( 'NONE',  ( -0.000000000000000000, 0.2887353815163796189, 0.9574089405581038825 ) ) ;
#582 = AXIS2_PLACEMENT_3D ( 'NONE', #251, #646, #737 ) ;
#583 = CARTESIAN_POINT ( 'NONE',  ( 0.1698419296040920567, 23.68444989726554439, 335.7675625812180442 ) ) ;
#584 = ORIENTED_EDGE ( 'NONE', *, *, #183, .F. ) ;
#585 = DIRECTION ( 'NONE',  ( 1.224646799147353207E-16, 1.000000000000000000, -0.000000000000000000 ) ) ;
#586 = DIRECTION ( 'NONE',  ( 0.000000000000000000, 0.000000000000000000, -1.000000000000000000 ) ) ;
#587 = DIRECTION ( 'NONE',  ( 1.000000000000000000, 0.000000000000000000, 0.000000000000000000 ) ) ;
#588 = CARTESIAN_POINT ( 'NONE',  ( 0.2593906436214876710, 0.6032825637344567671, 324.6594603217020563 ) ) ;
#589 = EDGE_CURVE ( 'NONE', #13, #952, #457, .T. ) ;
#590 = CYLINDRICAL_SURFACE ( 'NONE', #382, 209.7513101736959129 ) ;
#591 = DIRECTION ( 'NONE',  ( -0.000000000000000000, -0.9574089405581037715, 0.2887353815163795634 ) ) ;
#592 = CIRCLE ( 'NONE', #171, 4.099999999999994316 ) ;
#593 = ORIENTED_EDGE ( 'NONE', *, *, #271, .F. ) ;
#594 = CARTESIAN_POINT ( 'NONE',  ( 0.000000000000000000, 10.73956140196350795, 316.8796733749186956 ) ) ;
#595 = APPROVAL_STATUS ( 'not_yet_approved' ) ;
#596 = ORIENTED_EDGE ( 'NONE', *, *, #644, .F. ) ;
#597 = EDGE_CURVE ( 'NONE', #1066, #981, #374, .T. ) ;
#598 = CARTESIAN_POINT ( 'NONE',  ( 0.000000000000000000, 4.658068072423887429, 320.0522416802539283 ) ) ;
#599 = ORIENTED_EDGE ( 'NONE', *, *, #504, .T. ) ;
#600 = VECTOR ( 'NONE', #258, 1000.000000000000114 ) ;
#601 = ORIENTED_EDGE ( 'NONE', *, *, #867, .T. ) ;
#602 = AXIS2_PLACEMENT_3D ( 'NONE', #923, #836, #57 ) ;
#603 = DIRECTION ( 'NONE',  ( 0.000000000000000000, -0.9972392078358423007, 0.07425605938199077161 ) ) ;
#604 = CARTESIAN_POINT ( 'NONE',  ( 0.3235639766186161337, 59.53040364040145960, 326.1142493423110409 ) ) ;
#605 = APPLICATION_PROTOCOL_DEFINITION ( 'international standard', 'config_control_design', 1994, #973 ) ;
#606 = ORIENTED_EDGE ( 'NONE', *, *, #1241, .F. ) ;
#607 = ORIENTED_EDGE ( 'NONE', *, *, #798, .F. ) ;
#608 = EDGE_CURVE ( 'NONE', #803, #684, #674, .T. ) ;
#609 = ADVANCED_FACE ( 'NONE', ( #779 ), #88, .T. ) ;
#610 = LINE ( 'NONE', #1005, #1080 ) ;
#611 = ORGANIZATION ( 'UNSPECIFIED', 'UNSPECIFIED', '' ) ;
#612 = CARTESIAN_POINT ( 'NONE',  ( -0.5000000000000000000, 31.55524800644256445, 354.9933993685274345 ) ) ;
#613 = CARTESIAN_POINT ( 'NONE',  ( 0.02150319324969320045, -0.6048742237674784583, 330.7777610200063236 ) ) ;
#614 = ORIENTED_EDGE ( 'NONE', *, *, #888, .F. ) ;
#615 = EDGE_CURVE ( 'NONE', #26, #541, #1234, .T. ) ;
#616 = LINE ( 'NONE', #130, #22 ) ;
#617 = DIRECTION ( 'NONE',  ( 1.000000000000000000, 0.000000000000000000, 0.000000000000000000 ) ) ;
#618 = DIRECTION ( 'NONE',  ( 1.000000000000000000, 0.000000000000000000, -0.000000000000000000 ) ) ;
#619 = ORIENTED_EDGE ( 'NONE', *, *, #61, .F. ) ;
#620 = AXIS2_PLACEMENT_3D ( 'NONE', #380, #196, #96 ) ;
#621 = DIRECTION ( 'NONE',  ( 0.000000000000000000, 0.000000000000000000, 1.000000000000000000 ) ) ;
#622 = AXIS2_PLACEMENT_3D ( 'NONE', #184, #581, #5 ) ;
#623 = DIRECTION ( 'NONE',  ( 1.000000000000000000, 0.000000000000000000, 0.000000000000000000 ) ) ;
#624 = DIRECTION ( 'NONE',  ( 0.000000000000000000, 0.000000000000000000, -1.000000000000000000 ) ) ;
#625 = CARTESIAN_POINT ( 'NONE',  ( 0.06536543462215549383, 8.329631021805928626, 318.2984455790111724 ) ) ;
#626 = ORIENTED_EDGE ( 'NONE', *, *, #608, .T. ) ;
#627 = CARTESIAN_POINT ( 'NONE',  ( 0.9000000000000060174, 4.658068072423887429, 319.9522416802539624 ) ) ;
#628 = EDGE_CURVE ( 'NONE', #541, #72, #1264, .T. ) ;
#629 = ADVANCED_FACE ( 'NONE', ( #871 ), #274, .T. ) ;
#630 = CARTESIAN_POINT ( 'NONE',  ( 0.1237722317101603853, 28.95743384605577120, 336.4934521299205699 ) ) ;
#631 = ORIENTED_EDGE ( 'NONE', *, *, #722, .F. ) ;
#632 = CARTESIAN_POINT ( 'NONE',  ( -0.5000000000000000000, -46.14465380825145502, 334.7913824852740845 ) ) ;
#633 = VECTOR ( 'NONE', #98, 1000.000000000000000 ) ;
#634 = EDGE_CURVE ( 'NONE', #26, #1126, #768, .T. ) ;
#635 = DIRECTION ( 'NONE',  ( -1.000000000000000000, -0.000000000000000000, 0.000000000000000000 ) ) ;
#636 = CARTESIAN_POINT ( 'NONE',  ( -0.5000000000000000000, -13.17855960994564235, 396.5005517579629668 ) ) ;
#637 = ORIENTED_EDGE ( 'NONE', *, *, #722, .T. ) ;
#638 = ORIENTED_EDGE ( 'NONE', *, *, #1006, .T. ) ;
#639 = CARTESIAN_POINT ( 'NONE',  ( 0.2680686981775878275, -9.707375636087313353, 314.9880156215679676 ) ) ;
#640 = DIRECTION ( 'NONE',  ( -0.000000000000000000, 0.9972392078358423007, -0.07425605938199075773 ) ) ;
#641 = DIRECTION ( 'NONE',  ( 0.000000000000000000, 1.000000000000000000, 0.000000000000000000 ) ) ;
#642 = CIRCLE ( 'NONE', #967, 209.7513101736959413 ) ;
#643 = ADVANCED_FACE ( 'NONE', ( #562 ), #938, .F. ) ;
#644 = EDGE_CURVE ( 'NONE', #952, #192, #110, .T. ) ;
#645 = ORIENTED_EDGE ( 'NONE', *, *, #104, .T. ) ;
#646 = DIRECTION ( 'NONE',  ( 0.000000000000000000, -0.9972392078358423007, 0.07425605938199077161 ) ) ;
#647 = PLANE ( 'NONE',  #302 ) ;
#648 = VECTOR ( 'NONE', #516, 1000.000000000000000 ) ;
#649 = CARTESIAN_POINT ( 'NONE',  ( -0.5000000000000000000, 9.130141780030360366, 329.0490930149213682 ) ) ;
#650 = AXIS2_PLACEMENT_3D ( 'NONE', #378, #199, #85 ) ;
#651 = ORIENTED_EDGE ( 'NONE', *, *, #940, .T. ) ;
#652 = DIRECTION ( 'NONE',  ( -1.000000000000000000, -0.000000000000000000, 0.000000000000000000 ) ) ;
#653 =( BOUNDED_CURVE ( )  B_SPLINE_CURVE ( 3, ( #570, #868, #668, #1148 ),
 .UNSPECIFIED., .F., .F. ) 
 B_SPLINE_CURVE_WITH_KNOTS ( ( 4, 4 ),
 ( 4.670968477686073150, 4.698596161053405496 ),
 .UNSPECIFIED. ) 
 CURVE ( )  GEOMETRIC_REPRESENTATION_ITEM ( )  RATIONAL_B_SPLINE_CURVE ( ( 1.000000000000000000, 0.9999363936041152368, 0.9999363936041152368, 1.000000000000000000 ) ) 
 REPRESENTATION_ITEM ( '' )  );
#654 = CARTESIAN_POINT ( 'NONE',  ( 0.1375089923281654636, 30.92904519023152687, 336.0301840032569203 ) ) ;
#655 = DIRECTION ( 'NONE',  ( 1.000000000000000000, 0.000000000000000000, 0.000000000000000000 ) ) ;
#656 = DIRECTION ( 'NONE',  ( 1.000000000000000000, 0.000000000000000000, 0.000000000000000000 ) ) ;
#657 = ORIENTED_EDGE ( 'NONE', *, *, #390, .T. ) ;
#658 = AXIS2_PLACEMENT_3D ( 'NONE', #163, #539, #551 ) ;
#659 = DIRECTION ( 'NONE',  ( 1.000000000000000000, 0.000000000000000000, 0.000000000000000000 ) ) ;
#660 = VECTOR ( 'NONE', #111, 1000.000000000000114 ) ;
#661 = DIRECTION ( 'NONE',  ( -1.000000000000000000, -0.000000000000000000, 0.000000000000000000 ) ) ;
#662 = VERTEX_POINT ( 'NONE', #1191 ) ;
#663 = DIRECTION ( 'NONE',  ( -0.000000000000000000, 0.000000000000000000, -1.000000000000000000 ) ) ;
#664 = ORIENTED_EDGE ( 'NONE', *, *, #396, .F. ) ;
#665 = ORIENTED_EDGE ( 'NONE', *, *, #1055, .T. ) ;
#666 = DIRECTION ( 'NONE',  ( 1.000000000000000000, 0.000000000000000000, 0.000000000000000000 ) ) ;
#667 = EDGE_CURVE ( 'NONE', #340, #468, #1102, .T. ) ;
#668 = CARTESIAN_POINT ( 'NONE',  ( 0.2797466961341117941, -39.28623281931614741, 317.4779913970493226 ) ) ;
#669 = CC_DESIGN_SECURITY_CLASSIFICATION ( #453, ( #808 ) ) ;
#670 = DIRECTION ( 'NONE',  ( 0.000000000000000000, 0.000000000000000000, -1.000000000000000000 ) ) ;
#671 = SHAPE_DEFINITION_REPRESENTATION ( #309, #10 ) ;
#672 = LINE ( 'NONE', #578, #1144 ) ;
#673 = ORIENTED_EDGE ( 'NONE', *, *, #481, .T. ) ;
#674 = LINE ( 'NONE', #497, #1133 ) ;
#675 = CARTESIAN_POINT ( 'NONE',  ( 0.1332417169469699847, -16.95286211138472154, 311.6295195388508432 ) ) ;
#676 = ORIENTED_EDGE ( 'NONE', *, *, #414, .F. ) ;
#677 = LINE ( 'NONE', #1057, #794 ) ;
#678 = EDGE_LOOP ( 'NONE', ( #664, #478, #696, #858 ) ) ;
#679 = CARTESIAN_POINT ( 'NONE',  ( 0.3267487435667849605, -50.63964617727082640, 323.2762019079156062 ) ) ;
#680 = VECTOR ( 'NONE', #1255, 1000.000000000000000 ) ;
#681 = DIRECTION ( 'NONE',  ( 0.000000000000000000, 0.07425605938199074385, 0.9972392078358423007 ) ) ;
#682 = VECTOR ( 'NONE', #471, 1000.000000000000000 ) ;
#683 = CARTESIAN_POINT ( 'NONE',  ( 0.2302072563204318745, 21.38615770557973050, 334.3725716864688593 ) ) ;
#684 = VERTEX_POINT ( 'NONE', #598 ) ;
#685 = CARTESIAN_POINT ( 'NONE',  ( 0.3245204119653138375, -2.367089522146400782, 318.2109907266723212 ) ) ;
#686 = CARTESIAN_POINT ( 'NONE',  ( 0.5000000000000000000, -47.81426457483108550, 320.0498751535108681 ) ) ;
#687 = VERTEX_POINT ( 'NONE', #704 ) ;
#688 = ADVANCED_FACE ( 'NONE', ( #891 ), #590, .F. ) ;
#689 = CARTESIAN_POINT ( 'NONE',  ( 0.5000000000000000000, -10.04478385871892065, 334.7913824852740845 ) ) ;
#690 = PERSON_AND_ORGANIZATION ( #138, #611 ) ;
#691 = CARTESIAN_POINT ( 'NONE',  ( 0.000000000000000000, 4.658068072423888317, 328.0522416802539283 ) ) ;
#692 = LINE ( 'NONE', #1196, #876 ) ;
#693 = CIRCLE ( 'NONE', #978, 43.42751337495365505 ) ;
#694 = ORIENTED_EDGE ( 'NONE', *, *, #511, .T. ) ;
#695 = ORIENTED_EDGE ( 'NONE', *, *, #335, .T. ) ;
#696 = ORIENTED_EDGE ( 'NONE', *, *, #866, .F. ) ;
#697 = CARTESIAN_POINT ( 'NONE',  ( 0.09328795698597845687, -49.49245748883613061, 332.9897923644054458 ) ) ;
#698 = COORDINATED_UNIVERSAL_TIME_OFFSET ( 5, 0, .AHEAD. ) ;
#699 = ORIENTED_EDGE ( 'NONE', *, *, #904, .F. ) ;
#700 = AXIS2_PLACEMENT_3D ( 'NONE', #909, #742, #1014 ) ;
#701 = ORIENTED_EDGE ( 'NONE', *, *, #21, .T. ) ;
#702 = APPROVAL ( #595, 'UNSPECIFIED' ) ;
#703 = FACE_OUTER_BOUND ( 'NONE', #75, .T. ) ;
#704 = CARTESIAN_POINT ( 'NONE',  ( 0.06536543462215549383, 8.329631021805928626, 318.2984455790111724 ) ) ;
#705 = EDGE_CURVE ( 'NONE', #1087, #1268, #1123, .T. ) ;
#706 = CALENDAR_DATE ( 2026, 21, 9 ) ;
#707 = ORIENTED_EDGE ( 'NONE', *, *, #505, .T. ) ;
#708 = VERTEX_POINT ( 'NONE', #510 ) ;
#709 = CARTESIAN_POINT ( 'NONE',  ( 0.5000000000000000000, 59.44974678444262395, 317.0160766377058508 ) ) ;
#710 = CARTESIAN_POINT ( 'NONE',  ( 0.5000000000000000000, 3.601707438912865378, 320.0906634326399853 ) ) ;
#711 = DIRECTION ( 'NONE',  ( 0.000000000000000000, 0.000000000000000000, 1.000000000000000000 ) ) ;
#712 = DIRECTION ( 'NONE',  ( 1.000000000000000000, 0.000000000000000000, -0.000000000000000000 ) ) ;
#713 = VERTEX_POINT ( 'NONE', #710 ) ;
#714 = CIRCLE ( 'NONE', #214, 4.099999999999992539 ) ;
#715 = FACE_OUTER_BOUND ( 'NONE', #879, .T. ) ;
#716 = DIRECTION ( 'NONE',  ( 0.000000000000000000, 0.000000000000000000, -1.000000000000000000 ) ) ;
#717 = DIRECTION ( 'NONE',  ( 1.000000000000000000, 0.000000000000000000, 0.000000000000000000 ) ) ;
#718 = CARTESIAN_POINT ( 'NONE',  ( 0.5000000000000000000, 55.97545919361337496, 324.2249724447645463 ) ) ;
#719 = ORIENTED_EDGE ( 'NONE', *, *, #1088, .T. ) ;
#720 = AXIS2_PLACEMENT_3D ( 'NONE', #345, #1142, #1225 ) ;
#721 = DIRECTION ( 'NONE',  ( 0.000000000000000000, -0.9972392078358423007, 0.07425605938199075773 ) ) ;
#722 = EDGE_CURVE ( 'NONE', #72, #1126, #961, .T. ) ;
#723 = AXIS2_PLACEMENT_3D ( 'NONE', #367, #267, #748 ) ;
#724 = ADVANCED_FACE ( 'NONE', ( #427 ), #422, .T. ) ;
#725 = CARTESIAN_POINT ( 'NONE',  ( 0.5000000000000000000, -50.64827988010896576, 324.1765351532712884 ) ) ;
#726 = LINE ( 'NONE', #1047, #918 ) ;
#727 = CARTESIAN_POINT ( 'NONE',  ( 0.1464359511856865304, 31.55524800644256445, 335.7675625812180442 ) ) ;
#728 = ORIENTED_EDGE ( 'NONE', *, *, #224, .F. ) ;
#729 = CARTESIAN_POINT ( 'NONE',  ( -0.5000000000000000000, 9.130141780030360366, 329.0490930149213682 ) ) ;
#730 = EDGE_CURVE ( 'NONE', #1066, #340, #198, .T. ) ;
#731 = PLANE ( 'NONE',  #582 ) ;
#732 = CIRCLE ( 'NONE', #829, 4.099999999999992539 ) ;
#733 = CARTESIAN_POINT ( 'NONE',  ( 0.003955977724610108305, 56.75883020166668302, 313.5240346358257284 ) ) ;
#734 = VERTEX_POINT ( 'NONE', #1182 ) ;
#735 = CARTESIAN_POINT ( 'NONE',  ( 0.000000000000000000, 55.46078995309925830, 317.3131008752337721 ) ) ;
#736 = ORIENTED_EDGE ( 'NONE', *, *, #81, .T. ) ;
#737 = DIRECTION ( 'NONE',  ( 0.000000000000000000, -0.07425605938199077161, -0.9972392078358423007 ) ) ;
#738 = DIRECTION ( 'NONE',  ( 0.000000000000000000, 0.000000000000000000, -1.000000000000000000 ) ) ;
#739 = CARTESIAN_POINT ( 'NONE',  ( 0.2738942888682316390, 0.5580680724238951118, 324.0522416802536441 ) ) ;
#740 = EDGE_CURVE ( 'NONE', #1041, #3, #692, .T. ) ;
#741 = EDGE_LOOP ( 'NONE', ( #894, #218, #827, #950, #701, #1029, #7, #281, #27, #306, #466 ) ) ;
#742 = DIRECTION ( 'NONE',  ( 0.000000000000000000, 1.000000000000000000, 0.000000000000000000 ) ) ;
#743 = CIRCLE ( 'NONE', #1172, 43.42751337495365505 ) ;
#744 = CARTESIAN_POINT ( 'NONE',  ( 0.04576579532025300268, 57.99624785480276756, 314.2127064108889272 ) ) ;
#745 = EDGE_CURVE ( 'NONE', #289, #120, #1219, .T. ) ;
#746 = CARTESIAN_POINT ( 'NONE',  ( 0.5000000000000000000, 57.13040071967886036, 328.0546082069969884 ) ) ;
#747 = ORIENTED_EDGE ( 'NONE', *, *, #1223, .T. ) ;
#748 = DIRECTION ( 'NONE',  ( 0.000000000000000000, 0.000000000000000000, 1.000000000000000000 ) ) ;
#749 = CARTESIAN_POINT ( 'NONE',  ( 0.000000000000000000, 8.237857710335138250, 317.0659543157621556 ) ) ;
#750 = PLANE ( 'NONE',  #445 ) ;
#751 = CARTESIAN_POINT ( 'NONE',  ( 0.2680686981775878275, 19.02351178093508111, 333.1164677389397752 ) ) ;
#752 = CLOSED_SHELL ( 'NONE', ( #148, #757, #62, #469, #544, #847, #1186, #775, #609, #128, #259, #319, #45, #688, #1122, #202 ) ) ;
#753 = ORIENTED_EDGE ( 'NONE', *, *, #183, .T. ) ;
#754 = CARTESIAN_POINT ( 'NONE',  ( -0.5000000000000000000, -50.64827988010896576, 324.1765351532712884 ) ) ;
#755 = DIRECTION ( 'NONE',  ( 1.000000000000000000, 0.000000000000000000, 0.000000000000000000 ) ) ;
#756 = FACE_OUTER_BOUND ( 'NONE', #1176, .T. ) ;
#757 = ADVANCED_FACE ( 'NONE', ( #1002 ), #902, .F. ) ;
#758 = ORIENTED_EDGE ( 'NONE', *, *, #244, .T. ) ;
#759 = EDGE_CURVE ( 'NONE', #379, #59, #365, .T. ) ;
#760 = VECTOR ( 'NONE', #1163, 1000.000000000000000 ) ;
#761 = CARTESIAN_POINT ( 'NONE',  ( 0.3063895650093351186, -47.81426457483108550, 320.0498751535108681 ) ) ;
#762 = AXIS2_PLACEMENT_3D ( 'NONE', #954, #972, #681 ) ;
#763 = PLANE ( 'NONE',  #622 ) ;
#764 = DIRECTION ( 'NONE',  ( 1.000000000000000000, 0.000000000000000000, -0.000000000000000000 ) ) ;
#765 = DATE_AND_TIME ( #304, #946 ) ;
#766 = ORIENTED_EDGE ( 'NONE', *, *, #745, .F. ) ;
#767 = ORIENTED_EDGE ( 'NONE', *, *, #204, .F. ) ;
#768 = LINE ( 'NONE', #290, #325 ) ;
#769 = CARTESIAN_POINT ( 'NONE',  ( -209.4249691847613803, 9.106350186110812928, 328.7295782107298123 ) ) ;
#770 = ORIENTED_EDGE ( 'NONE', *, *, #634, .T. ) ;
#771 = CARTESIAN_POINT ( 'NONE',  ( -0.5000000000000000000, 3.601707438912865378, 328.0138199278678712 ) ) ;
#772 = ORIENTED_EDGE ( 'NONE', *, *, #1263, .T. ) ;
#773 = CARTESIAN_POINT ( 'NONE',  ( -0.5000000000000000000, -46.65932304876560011, 323.8795109157433103 ) ) ;
#774 = CARTESIAN_POINT ( 'NONE',  ( 0.1230393385021652936, -18.97507598629323766, 311.5449632024835864 ) ) ;
#775 = ADVANCED_FACE ( 'NONE', ( #47 ), #456, .T. ) ;
#776 = EDGE_CURVE ( 'NONE', #1218, #1084, #149, .T. ) ;
#777 = CARTESIAN_POINT ( 'NONE',  ( 0.3260962805466949277, 9.130141780030353260, 329.0490930149213682 ) ) ;
#778 = ORIENTED_EDGE ( 'NONE', *, *, #1239, .T. ) ;
#779 = FACE_OUTER_BOUND ( 'NONE', #895, .T. ) ;
#780 = CIRCLE ( 'NONE', #201, 10.17550985523557650 ) ;
#781 = DIRECTION ( 'NONE',  ( 0.000000000000000000, 0.07425605938199077161, 0.9972392078358423007 ) ) ;
#782 = AXIS2_PLACEMENT_3D ( 'NONE', #947, #1070, #291 ) ;
#783 = ORIENTED_EDGE ( 'NONE', *, *, #81, .F. ) ;
#784 = CARTESIAN_POINT ( 'NONE',  ( 0.1281839652589804035, 26.94066058152978371, 336.5422987980737162 ) ) ;
#785 = CARTESIAN_POINT ( 'NONE',  ( 0.5000000000000000000, -14.36831375241776421, 312.3369207792898123 ) ) ;
#786 = CARTESIAN_POINT ( 'NONE',  ( 0.008665017496746290487, -47.63368965389893361, 334.5094947644328727 ) ) ;
#787 = DIRECTION ( 'NONE',  ( 0.000000000000000000, -0.07425605938199075773, -0.9972392078358423007 ) ) ;
#788 = ORIENTED_EDGE ( 'NONE', *, *, #224, .T. ) ;
#789 = ORIENTED_EDGE ( 'NONE', *, *, #924, .T. ) ;
#790 = DIRECTION ( 'NONE',  ( 0.000000000000000000, 0.9972392078358423007, -0.07425605938199077161 ) ) ;
#791 = ORIENTED_EDGE ( 'NONE', *, *, #1081, .F. ) ;
#792 = CARTESIAN_POINT ( 'NONE',  ( 0.3063895650093351186, 57.13040071967886036, 328.0546082069969884 ) ) ;
#793 = PERSON_AND_ORGANIZATION_ROLE ( 'creator' ) ;
#794 = VECTOR ( 'NONE', #392, 1000.000000000000000 ) ;
#795 = EDGE_LOOP ( 'NONE', ( #863, #676, #195, #277, #347 ) ) ;
#796 = ORIENTED_EDGE ( 'NONE', *, *, #254, .F. ) ;
#797 = CARTESIAN_POINT ( 'NONE',  ( 0.9000000000000057954, 4.658068072423887429, 324.0522416802539283 ) ) ;
#798 = EDGE_CURVE ( 'NONE', #243, #328, #1115, .T. ) ;
#799 = CARTESIAN_POINT ( 'NONE',  ( 0.3100566286895358736, 57.96779372104255401, 327.7232075385947496 ) ) ;
#800 =( NAMED_UNIT ( * ) PLANE_ANGLE_UNIT ( ) SI_UNIT ( $, .RADIAN. ) );
#801 = VERTEX_POINT ( 'NONE', #360 ) ;
#802 = AXIS2_PLACEMENT_3D ( 'NONE', #73, #181, #79 ) ;
#803 = VERTEX_POINT ( 'NONE', #1121 ) ;
#804 = CARTESIAN_POINT ( 'NONE',  ( -0.5000000000000000000, 8.329631021805921520, 318.2984455790111724 ) ) ;
#805 = CARTESIAN_POINT ( 'NONE',  ( -0.5000000000000000000, 31.55524800644256445, 354.9933993685274345 ) ) ;
#806 = ORIENTED_EDGE ( 'NONE', *, *, #705, .F. ) ;
#807 = DIRECTION ( 'NONE',  ( -1.000000000000000000, 0.000000000000000000, -0.000000000000000000 ) ) ;
#808 = PRODUCT_DEFINITION_FORMATION_WITH_SPECIFIED_SOURCE ( 'ANY', '', #1181, .NOT_KNOWN. ) ;
#809 = DIRECTION ( 'NONE',  ( 0.000000000000000000, 0.000000000000000000, 1.000000000000000000 ) ) ;
#810 = CARTESIAN_POINT ( 'NONE',  ( 0.02150319324969320392, 9.921010368615254649, 317.3267223405015329 ) ) ;
#811 = VERTEX_POINT ( 'NONE', #60 ) ;
#812 = VECTOR ( 'NONE', #401, 1000.000000000000114 ) ;
#813 = B_SPLINE_CURVE_WITH_KNOTS ( 'NONE', 3,
 ( #381, #376, #1074, #846, #675, #89, #1271, #774, #853, #484, #872, #404 ),
 .UNSPECIFIED., .F., .F.,
 ( 4, 2, 2, 2, 2, 4 ),
 ( 0.000000000000000000, 0.002008394078643253953, 0.003012591117964869003, 0.004016788157286484487, 0.006025182235929715455, 0.008033576314572946422 ),
 .UNSPECIFIED. ) ;
#814 = DIRECTION ( 'NONE',  ( 0.000000000000000000, 0.000000000000000000, 1.000000000000000000 ) ) ;
#815 = MANIFOLD_SOLID_BREP ( 'Cut-Extrude3', #752 ) ;
#816 = CARTESIAN_POINT ( 'NONE',  ( 0.000000000000000000, -1.423425257115732201, 331.2248099855891610 ) ) ;
#817 = CARTESIAN_POINT ( 'NONE',  ( 0.1758969445890823380, 59.44974678444262395, 317.0160766377058508 ) ) ;
#818 = EDGE_CURVE ( 'NONE', #86, #72, #356, .T. ) ;
#819 = FACE_OUTER_BOUND ( 'NONE', #532, .T. ) ;
#820 = ORIENTED_EDGE ( 'NONE', *, *, #634, .F. ) ;
#821 = CIRCLE ( 'NONE', #136, 4.099999999999994316 ) ;
#822 = VECTOR ( 'NONE', #364, 1000.000000000000114 ) ;
#823 = CARTESIAN_POINT ( 'NONE',  ( 0.2302072563204318745, -12.07002156073195742, 313.7319116740389973 ) ) ;
#824 = CARTESIAN_POINT ( 'NONE',  ( -0.5000000000000000000, 14.00198404301590926, 394.4766441060474449 ) ) ;
#825 = ORIENTED_EDGE ( 'NONE', *, *, #854, .T. ) ;
#826 = DIRECTION ( 'NONE',  ( -1.000000000000000000, 0.000000000000000000, -0.000000000000000000 ) ) ;
#827 = ORIENTED_EDGE ( 'NONE', *, *, #1199, .T. ) ;
#828 = LINE ( 'NONE', #238, #937 ) ;
#829 = AXIS2_PLACEMENT_3D ( 'NONE', #477, #661, #1156 ) ;
#830 = ADVANCED_FACE ( 'NONE', ( #349 ), #461, .T. ) ;
#831 = CARTESIAN_POINT ( 'NONE',  ( -0.5000000000000000000, -22.23911186159478603, 312.3369207792898123 ) ) ;
#832 = LINE ( 'NONE', #632, #682 ) ;
#833 = ADVANCED_FACE ( 'NONE', ( #1135 ), #143, .T. ) ;
#834 = ORIENTED_EDGE ( 'NONE', *, *, #1222, .T. ) ;
#835 = CARTESIAN_POINT ( 'NONE',  ( -0.5000000000000000000, 8.712853581113318313, 323.4450230388058003 ) ) ;
#836 = DIRECTION ( 'NONE',  ( -1.000000000000000000, 0.000000000000000000, 0.000000000000000000 ) ) ;
#837 = AXIS2_PLACEMENT_3D ( 'NONE', #307, #190, #852 ) ;
#838 = EDGE_LOOP ( 'NONE', ( #1167, #256, #272, #423, #1129, #789, #188, #225 ) ) ;
#839 = DIRECTION ( 'NONE',  ( 0.000000000000000000, 1.040834085586083310E-14, -1.000000000000000000 ) ) ;
#840 = CIRCLE ( 'NONE', #1243, 4.099999999999992539 ) ;
#841 = LINE ( 'NONE', #824, #600 ) ;
#842 = DIRECTION ( 'NONE',  ( 0.000000000000000000, -0.9972392078358424117, 0.07425605938199077161 ) ) ;
#843 = DIRECTION ( 'NONE',  ( -1.000000000000000000, -0.000000000000000000, -0.000000000000000000 ) ) ;
#844 = ORIENTED_EDGE ( 'NONE', *, *, #1139, .F. ) ;
#845 = CARTESIAN_POINT ( 'NONE',  ( 0.3235639766186161337, -50.21426749555367053, 321.9902340181968725 ) ) ;
#846 = CARTESIAN_POINT ( 'NONE',  ( 0.1364444232752038133, -16.62086570913177042, 311.6796367703618671 ) ) ;
#847 = ADVANCED_FACE ( 'NONE', ( #263 ), #731, .T. ) ;
#848 = EDGE_CURVE ( 'NONE', #243, #906, #743, .T. ) ;
#849 = DIRECTION ( 'NONE',  ( 1.000000000000000000, 0.000000000000000000, 0.000000000000000000 ) ) ;
#850 = AXIS2_PLACEMENT_3D ( 'NONE', #1114, #1094, #670 ) ;
#851 = EDGE_LOOP ( 'NONE', ( #550, #983, #366, #607 ) ) ;
#852 = DIRECTION ( 'NONE',  ( 0.000000000000000000, 0.000000000000000000, -1.000000000000000000 ) ) ;
#853 = CARTESIAN_POINT ( 'NONE',  ( 0.1237722317101603853, -19.64129770120799634, 311.6110312305872867 ) ) ;
#854 = EDGE_CURVE ( 'NONE', #3, #141, #485, .T. ) ;
#855 = CARTESIAN_POINT ( 'NONE',  ( 0.2738942888682316390, 8.758068072423879968, 324.0522416802542125 ) ) ;
#856 = VERTEX_POINT ( 'NONE', #627 ) ;
#857 = DIRECTION ( 'NONE',  ( -1.000000000000000000, -0.000000000000000000, -0.000000000000000000 ) ) ;
#858 = ORIENTED_EDGE ( 'NONE', *, *, #1027, .F. ) ;
#859 = VECTOR ( 'NONE', #962, 1000.000000000000000 ) ;
#860 = CARTESIAN_POINT ( 'NONE',  ( 0.3077507626448056643, -48.24996602707206961, 320.1812739943936208 ) ) ;
#861 = CYLINDRICAL_SURFACE ( 'NONE', #77, 209.7513101736958845 ) ;
#862 = CARTESIAN_POINT ( 'NONE',  ( -0.5000000000000000000, -13.17855960994564235, 396.5005517579629668 ) ) ;
#863 = ORIENTED_EDGE ( 'NONE', *, *, #956, .F. ) ;
#864 = ORIENTED_EDGE ( 'NONE', *, *, #46, .T. ) ;
#865 = LINE ( 'NONE', #945, #760 ) ;
#866 = EDGE_CURVE ( 'NONE', #801, #1084, #780, .T. ) ;
#867 = EDGE_CURVE ( 'NONE', #1268, #1194, #426, .T. ) ;
#868 = CARTESIAN_POINT ( 'NONE',  ( 0.2264254332861978525, -30.76063963264889267, 314.9068430641636382 ) ) ;
#869 = DIRECTION ( 'NONE',  ( 0.000000000000000000, 0.000000000000000000, 1.000000000000000000 ) ) ;
#870 = CARTESIAN_POINT ( 'NONE',  ( 0.5000000000000000000, 55.46078995309922988, 313.3131008752337721 ) ) ;
#871 = FACE_OUTER_BOUND ( 'NONE', #678, .T. ) ;
#872 = CARTESIAN_POINT ( 'NONE',  ( 0.1375089923281654636, -21.61290904538375557, 312.0742993572509931 ) ) ;
#873 = CARTESIAN_POINT ( 'NONE',  ( 0.1364444232752038133, 25.93700185397953817, 336.4248465901458189 ) ) ;
#874 = ORIENTED_EDGE ( 'NONE', *, *, #354, .F. ) ;
#875 = CARTESIAN_POINT ( 'NONE',  ( -0.5000000000000000000, 59.96441602495674061, 323.9279482072365681 ) ) ;
#876 = VECTOR ( 'NONE', #996, 1000.000000000000000 ) ;
#877 = CARTESIAN_POINT ( 'NONE',  ( -0.5000000000000000000, 5.714428705934910369, 328.0138199278678712 ) ) ;
#878 = VECTOR ( 'NONE', #591, 1000.000000000000114 ) ;
#879 = EDGE_LOOP ( 'NONE', ( #231, #645, #758, #293, #177, #1244, #596, #203 ) ) ;
#880 = DIRECTION ( 'NONE',  ( 1.000000000000000000, 0.000000000000000000, 0.000000000000000000 ) ) ;
#881 = COORDINATED_UNIVERSAL_TIME_OFFSET ( 5, 0, .AHEAD. ) ;
#882 = ORIENTED_EDGE ( 'NONE', *, *, #1106, .F. ) ;
#883 = DIRECTION ( 'NONE',  ( 0.000000000000000000, 0.000000000000000000, -1.000000000000000000 ) ) ;
#884 = CARTESIAN_POINT ( 'NONE',  ( 0.5000000000000000000, -22.23911186159478603, 312.3369207792898123 ) ) ;
#885 = EDGE_LOOP ( 'NONE', ( #1257, #665, #38, #699 ) ) ;
#886 = ORIENTED_EDGE ( 'NONE', *, *, #292, .T. ) ;
#887 = AXIS2_PLACEMENT_3D ( 'NONE', #132, #1184, #624 ) ;
#888 = EDGE_CURVE ( 'NONE', #289, #450, #545, .T. ) ;
#889 = EDGE_CURVE ( 'NONE', #803, #662, #137, .T. ) ;
#890 = PLANE ( 'NONE',  #893 ) ;
#891 = FACE_OUTER_BOUND ( 'NONE', #741, .T. ) ;
#892 = CARTESIAN_POINT ( 'NONE',  ( 0.000000000000000000, 0.000000000000000000, 0.000000000000000000 ) ) ;
#893 = AXIS2_PLACEMENT_3D ( 'NONE', #341, #237, #526 ) ;
#894 = ORIENTED_EDGE ( 'NONE', *, *, #759, .T. ) ;
#895 = EDGE_LOOP ( 'NONE', ( #420, #501, #411, #157, #673, #1165, #606 ) ) ;
#896 = CARTESIAN_POINT ( 'NONE',  ( -0.5000000000000000000, 4.658068072423872330, 324.0522416802539283 ) ) ;
#897 = CARTESIAN_POINT ( 'NONE',  ( 0.01946753168304732329, -48.00410017656044204, 334.3387823603144398 ) ) ;
#898 = EDGE_LOOP ( 'NONE', ( #1097, #882, #334, #886 ) ) ;
#899 = AXIS2_PLACEMENT_3D ( 'NONE', #928, #63, #440 ) ;
#900 = VECTOR ( 'NONE', #640, 1000.000000000000000 ) ;
#901 = LINE ( 'NONE', #1107, #150 ) ;
#902 = CYLINDRICAL_SURFACE ( 'NONE', #115, 71.04489738377667152 ) ;
#903 = LINE ( 'NONE', #321, #648 ) ;
#904 = EDGE_CURVE ( 'NONE', #317, #1262, #828, .T. ) ;
#905 = CARTESIAN_POINT ( 'NONE',  ( 0.1464359511856865304, -22.23911186159478603, 312.3369207792898123 ) ) ;
#906 = VERTEX_POINT ( 'NONE', #816 ) ;
#907 = DIRECTION ( 'NONE',  ( 1.000000000000000000, 0.000000000000000000, 0.000000000000000000 ) ) ;
#908 = EDGE_CURVE ( 'NONE', #482, #713, #1215, .T. ) ;
#909 = CARTESIAN_POINT ( 'NONE',  ( 0.9000000000000057954, 4.658068072423887429, 324.0522416802539283 ) ) ;
#910 = CARTESIAN_POINT ( 'NONE',  ( 0.000000000000000000, 56.56197092524791969, 313.4676619579478825 ) ) ;
#911 = LINE ( 'NONE', #1217, #158 ) ;
#912 = EDGE_LOOP ( 'NONE', ( #248, #834, #572, #1078 ) ) ;
#913 = CIRCLE ( 'NONE', #375, 71.04489738377667152 ) ;
#914 = CARTESIAN_POINT ( 'NONE',  ( -0.5000000000000000000, 55.46078995309922988, 313.3131008752337721 ) ) ;
#915 = CARTESIAN_POINT ( 'NONE',  ( 0.1440725594507533402, 59.32851967044020114, 316.2147222691526736 ) ) ;
#916 = VERTEX_POINT ( 'NONE', #1018 ) ;
#917 = CARTESIAN_POINT ( 'NONE',  ( 0.2593906436214876710, 8.712853581113318313, 323.4450230388058003 ) ) ;
#918 = VECTOR ( 'NONE', #483, 1000.000000000000000 ) ;
#919 = CARTESIAN_POINT ( 'NONE',  ( -0.5000000000000000000, 5.714428705934910369, 320.0906634326399853 ) ) ;
#920 = CC_DESIGN_PERSON_AND_ORGANIZATION_ASSIGNMENT ( #690, #993, ( #453 ) ) ;
#921 = CARTESIAN_POINT ( 'NONE',  ( 0.5000000000000000000, 59.96441602495674061, 323.9279482072365681 ) ) ;
#922 = ORIENTED_EDGE ( 'NONE', *, *, #271, .T. ) ;
#923 = CARTESIAN_POINT ( 'NONE',  ( 0.5000000000000000000, 22.49469575479341898, 251.6039316025449182 ) ) ;
#924 = EDGE_CURVE ( 'NONE', #109, #811, #1046, .T. ) ;
#925 = EDGE_LOOP ( 'NONE', ( #657, #638, #1249, #437 ) ) ;
#926 = CARTESIAN_POINT ( 'NONE',  ( 0.3152419391924302650, -4.855909552625360170, 317.2275546213311372 ) ) ;
#927 = CIRCLE ( 'NONE', #187, 209.7513101736959413 ) ;
#928 = CARTESIAN_POINT ( 'NONE',  ( 0.5000000000000000000, -13.17855960994564235, 396.5005517579629668 ) ) ;
#929 = LINE ( 'NONE', #649, #1113 ) ;
#930 = VECTOR ( 'NONE', #656, 1000.000000000000000 ) ;
#931 = EDGE_LOOP ( 'NONE', ( #728, #119, #626, #387 ) ) ;
#932 = CARTESIAN_POINT ( 'NONE',  ( 0.000000000000000000, -46.14465380825148344, 330.7913824852740845 ) ) ;
#933 = DIRECTION ( 'NONE',  ( 0.000000000000000000, -1.000000000000000000, 0.000000000000000000 ) ) ;
#934 = DIRECTION ( 'NONE',  ( 0.000000000000000000, 1.717376241217037509E-13, -1.000000000000000000 ) ) ;
#935 = AXIS2_PLACEMENT_3D ( 'NONE', #14, #712, #1188 ) ;
#936 = ORIENTED_EDGE ( 'NONE', *, *, #481, .F. ) ;
#937 = VECTOR ( 'NONE', #623, 1000.000000000000000 ) ;
#938 = PLANE ( 'NONE',  #802 ) ;
#939 = DESIGN_CONTEXT ( 'detailed design', #973, 'design' ) ;
#940 = EDGE_CURVE ( 'NONE', #56, #450, #363, .T. ) ;
#941 = CARTESIAN_POINT ( 'NONE',  ( -0.5000000000000000000, 4.658068072423903416, 324.0522416802539283 ) ) ;
#942 = CYLINDRICAL_SURFACE ( 'NONE', #492, 4.000000000000003553 ) ;
#943 = ORIENTED_EDGE ( 'NONE', *, *, #335, .F. ) ;
#944 = ADVANCED_FACE ( 'NONE', ( #459 ), #1247, .F. ) ;
#945 = CARTESIAN_POINT ( 'NONE',  ( 0.000000000000000000, 55.46078995309922988, 313.3131008752337721 ) ) ;
#946 = LOCAL_TIME ( 1, 20, 13.00000000000000000, #121 ) ;
#947 = CARTESIAN_POINT ( 'NONE',  ( -0.5000000000000000000, -13.17855960994564235, 396.5005517579629668 ) ) ;
#948 = VERTEX_POINT ( 'NONE', #1240 ) ;
#949 = CARTESIAN_POINT ( 'NONE',  ( -209.4249691847613803, 9.106350186110812928, 328.7295782107298123 ) ) ;
#950 = ORIENTED_EDGE ( 'NONE', *, *, #615, .T. ) ;
#951 = CLOSED_SHELL ( 'NONE', ( #1100, #182, #629, #1099, #1162, #318, #280, #833, #724, #944, #431, #959, #643, #1205, #1228, #294 ) ) ;
#952 = VERTEX_POINT ( 'NONE', #739 ) ;
#953 = CARTESIAN_POINT ( 'NONE',  ( 0.000000000000000000, 55.46078995309922988, 313.3131008752337721 ) ) ;
#954 = CARTESIAN_POINT ( 'NONE',  ( -209.4249691847613803, 0.2097859587369618750, 319.3749051497780442 ) ) ;
#955 = CARTESIAN_POINT ( 'NONE',  ( 0.3245204119653137820, 11.68322566699417742, 329.8934926338355922 ) ) ;
#956 = EDGE_CURVE ( 'NONE', #555, #573, #464, .T. ) ;
#957 = DIRECTION ( 'NONE',  ( -0.000000000000000000, 1.000000000000000000, 0.000000000000000000 ) ) ;
#958 = ORIENTED_EDGE ( 'NONE', *, *, #1124, .T. ) ;
#959 = ADVANCED_FACE ( 'NONE', ( #1119 ), #750, .T. ) ;
#960 = APPROVAL ( #327, 'UNSPECIFIED' ) ;
#961 = CIRCLE ( 'NONE', #444, 4.000000000000003553 ) ;
#962 = DIRECTION ( 'NONE',  ( 1.000000000000000000, 0.000000000000000000, 0.000000000000000000 ) ) ;
#963 = CC_DESIGN_PERSON_AND_ORGANIZATION_ASSIGNMENT ( #15, #286, ( #808 ) ) ;
#964 = CARTESIAN_POINT ( 'NONE',  ( -209.4249691847613803, 9.106350186110812928, 328.7295782107298123 ) ) ;
#965 = DIRECTION ( 'NONE',  ( -1.000000000000000000, -0.000000000000000000, -0.000000000000000000 ) ) ;
#966 = EDGE_CURVE ( 'NONE', #708, #192, #74, .T. ) ;
#967 = AXIS2_PLACEMENT_3D ( 'NONE', #949, #479, #1159 ) ;
#968 = ORIENTED_EDGE ( 'NONE', *, *, #12, .T. ) ;
#969 = B_SPLINE_CURVE_WITH_KNOTS ( 'NONE', 3,
 ( #777, #955, #1170, #751, #683, #583 ),
 .UNSPECIFIED., .F., .F.,
 ( 4, 2, 4 ),
 ( 0.000000000000000000, 0.008015455905730835273, 0.01603091181146167055 ),
 .UNSPECIFIED. ) ;
#970 = CARTESIAN_POINT ( 'NONE',  ( 0.2593906436214876710, 0.6032825637344567671, 324.6594603217020563 ) ) ;
#971 = APPROVAL_PERSON_ORGANIZATION ( #1009, #522, #530 ) ;
#972 = DIRECTION ( 'NONE',  ( 0.000000000000000000, -0.9972392078358424117, 0.07425605938199077161 ) ) ;
#973 = APPLICATION_CONTEXT ( 'configuration controlled 3d designs of mechanical parts and assemblies' ) ;
#974 = APPROVAL_PERSON_ORGANIZATION ( #25, #960, #1096 ) ;
#975 = CARTESIAN_POINT ( 'NONE',  ( -0.5000000000000000000, 59.44974678444262395, 317.0160766377058508 ) ) ;
#976 = COORDINATED_UNIVERSAL_TIME_OFFSET ( 5, 0, .AHEAD. ) ;
#977 = ORIENTED_EDGE ( 'NONE', *, *, #966, .T. ) ;
#978 = AXIS2_PLACEMENT_3D ( 'NONE', #1058, #857, #1261 ) ;
#979 = CARTESIAN_POINT ( 'NONE',  ( 0.04576579532025305819, -48.68011170995495718, 333.8917769496189862 ) ) ;
#980 = CARTESIAN_POINT ( 'NONE',  ( -209.4249691847613803, 0.2097859587369618750, 319.3749051497780442 ) ) ;
#981 = VERTEX_POINT ( 'NONE', #746 ) ;
#982 = CARTESIAN_POINT ( 'NONE',  ( 0.04345059969746274675, 9.117703600319021717, 317.7996447910436473 ) ) ;
#983 = ORIENTED_EDGE ( 'NONE', *, *, #988, .T. ) ;
#984 = CARTESIAN_POINT ( 'NONE',  ( -209.4249691847613803, 0.2097859587369618750, 319.3749051497780442 ) ) ;
#985 = CIRCLE ( 'NONE', #69, 4.000000000000003553 ) ;
#986 = VECTOR ( 'NONE', #1125, 1000.000000000000000 ) ;
#987 = CARTESIAN_POINT ( 'NONE',  ( 0.04345059969746274675, 0.1984325445287544454, 330.3048385694642093 ) ) ;
#988 = EDGE_CURVE ( 'NONE', #1194, #916, #832, .T. ) ;
#989 = CIRCLE ( 'NONE', #278, 71.04489738377667152 ) ;
#990 = EDGE_CURVE ( 'NONE', #708, #482, #989, .T. ) ;
#991 = ORIENTED_EDGE ( 'NONE', *, *, #730, .F. ) ;
#992 = EDGE_LOOP ( 'NONE', ( #133, #770, #631, #1017 ) ) ;
#993 = PERSON_AND_ORGANIZATION_ROLE ( 'classification_officer' ) ;
#994 = DIRECTION ( 'NONE',  ( 0.000000000000000000, -0.07425605938199074385, -0.9972392078358423007 ) ) ;
#995 = AXIS2_PLACEMENT_3D ( 'NONE', #179, #567, #473 ) ;
#996 = DIRECTION ( 'NONE',  ( -0.000000000000000000, 1.000000000000000000, -0.000000000000000000 ) ) ;
#997 = DATE_TIME_ROLE ( 'creation_date' ) ;
#998 = VERTEX_POINT ( 'NONE', #465 ) ;
#999 = ORIENTED_EDGE ( 'NONE', *, *, #730, .T. ) ;
#1000 = LOCAL_TIME ( 1, 20, 13.00000000000000000, #976 ) ;
#1001 = CYLINDRICAL_SURFACE ( 'NONE', #41, 10.17550985523557650 ) ;
#1002 = FACE_OUTER_BOUND ( 'NONE', #1085, .T. ) ;
#1003 = DIRECTION ( 'NONE',  ( 0.000000000000000000, -0.07425605938199075773, -0.9972392078358423007 ) ) ;
#1004 = ORIENTED_EDGE ( 'NONE', *, *, #144, .T. ) ;
#1005 = CARTESIAN_POINT ( 'NONE',  ( -0.5000000000000000000, 0.6032825637344567671, 324.6594603217020563 ) ) ;
#1006 = EDGE_CURVE ( 'NONE', #379, #952, #564, .T. ) ;
#1007 = ADVANCED_FACE ( 'NONE', ( #1143 ), #353, .T. ) ;
#1008 = CARTESIAN_POINT ( 'NONE',  ( 0.1186561709543840909, -49.78691124884907993, 332.4573365418393678 ) ) ;
#1009 = PERSON_AND_ORGANIZATION ( #138, #611 ) ;
#1010 = DIRECTION ( 'NONE',  ( 0.000000000000000000, -1.000000000000000000, 0.000000000000000000 ) ) ;
#1011 = ORIENTED_EDGE ( 'NONE', *, *, #65, .T. ) ;
#1012 = AXIS2_PLACEMENT_3D ( 'NONE', #773, #4, #470 ) ;
#1013 = DIRECTION ( 'NONE',  ( 0.000000000000000000, 0.000000000000000000, -1.000000000000000000 ) ) ;
#1014 = DIRECTION ( 'NONE',  ( 1.000000000000000000, 0.000000000000000000, 0.000000000000000000 ) ) ;
#1015 = PLANE ( 'NONE',  #370 ) ;
#1016 = CARTESIAN_POINT ( 'NONE',  ( 0.3260962805466949277, 0.1859943648174211539, 319.0553903455864884 ) ) ;
#1017 = ORIENTED_EDGE ( 'NONE', *, *, #628, .F. ) ;
#1018 = CARTESIAN_POINT ( 'NONE',  ( 0.5000000000000000000, -46.14465380825145502, 334.7913824852740845 ) ) ;
#1019 = FACE_OUTER_BOUND ( 'NONE', #1201, .T. ) ;
#1020 = VERTEX_POINT ( 'NONE', #369 ) ;
#1021 = VECTOR ( 'NONE', #324, 1000.000000000000000 ) ;
#1022 = CARTESIAN_POINT ( 'NONE',  ( -0.5000000000000000000, 4.658068072423872330, 324.0522416802539283 ) ) ;
#1023 = CARTESIAN_POINT ( 'NONE',  ( 0.5000000000000000000, 55.46078995309925830, 317.3131008752337721 ) ) ;
#1024 = DIRECTION ( 'NONE',  ( 0.000000000000000000, 0.000000000000000000, -1.000000000000000000 ) ) ;
#1025 = ORIENTED_EDGE ( 'NONE', *, *, #1088, .F. ) ;
#1026 = DIRECTION ( 'NONE',  ( 0.000000000000000000, 0.9972392078358423007, -0.07425605938199077161 ) ) ;
#1027 = EDGE_CURVE ( 'NONE', #323, #801, #1220, .T. ) ;
#1028 = VECTOR ( 'NONE', #257, 1000.000000000000000 ) ;
#1029 = ORIENTED_EDGE ( 'NONE', *, *, #705, .T. ) ;
#1030 = DIRECTION ( 'NONE',  ( -1.000000000000000000, 0.000000000000000000, -0.000000000000000000 ) ) ;
#1031 = CARTESIAN_POINT ( 'NONE',  ( 0.5000000000000000000, 31.55524800644256445, 354.9933993685274345 ) ) ;
#1032 = CARTESIAN_POINT ( 'NONE',  ( -209.4249691847613803, 60.03955232636113237, 324.9370088322663150 ) ) ;
#1033 = ORIENTED_EDGE ( 'NONE', *, *, #160, .T. ) ;
#1034 = DIRECTION ( 'NONE',  ( 0.000000000000000000, 0.000000000000000000, 1.000000000000000000 ) ) ;
#1035 = CARTESIAN_POINT ( 'NONE',  ( 0.02557306406685406694, 57.49954060792458677, 313.8657247492131432 ) ) ;
#1036 = CARTESIAN_POINT ( 'NONE',  ( 0.5000000000000000000, 23.68444989726554084, 335.7675625812180442 ) ) ;
#1037 = AXIS2_PLACEMENT_3D ( 'NONE', #216, #603, #994 ) ;
#1038 = EDGE_LOOP ( 'NONE', ( #236, #736, #44, #614, #486, #517, #874 ) ) ;
#1039 = CARTESIAN_POINT ( 'NONE',  ( -0.5000000000000000000, 27.61984895185404909, 326.3838727368583363 ) ) ;
#1040 = CARTESIAN_POINT ( 'NONE',  ( 0.5000000000000000000, 19.36092000356669729, 313.3131008752337721 ) ) ;
#1041 = VERTEX_POINT ( 'NONE', #1040 ) ;
#1042 = CYLINDRICAL_SURFACE ( 'NONE', #995, 4.000000000000003553 ) ;
#1043 = EDGE_CURVE ( 'NONE', #1051, #384, #929, .T. ) ;
#1044 = AXIS2_PLACEMENT_3D ( 'NONE', #552, #264, #357 ) ;
#1045 = ORIENTED_EDGE ( 'NONE', *, *, #542, .T. ) ;
#1046 = CIRCLE ( 'NONE', #723, 4.099999999999992539 ) ;
#1047 = CARTESIAN_POINT ( 'NONE',  ( -0.5000000000000000000, 0.9865051230418531159, 329.8060377814966841 ) ) ;
#1048 = CARTESIAN_POINT ( 'NONE',  ( 0.1758969445890823380, 59.44974678444262395, 317.0160766377058508 ) ) ;
#1049 = CARTESIAN_POINT ( 'NONE',  ( -0.5000000000000000000, 5.714428705934910369, 320.0906634326399853 ) ) ;
#1050 = ORIENTED_EDGE ( 'NONE', *, *, #908, .T. ) ;
#1051 = VERTEX_POINT ( 'NONE', #729 ) ;
#1052 = LINE ( 'NONE', #205, #859 ) ;
#1053 = LOCAL_TIME ( 1, 20, 13.00000000000000000, #698 ) ;
#1054 = DIRECTION ( 'NONE',  ( 0.000000000000000000, 0.07425605938199075773, 0.9972392078358423007 ) ) ;
#1055 = EDGE_CURVE ( 'NONE', #59, #19, #175, .T. ) ;
#1056 = PRODUCT_DEFINITION ( 'UNKNOWN', '', #808, #939 ) ;
#1057 = CARTESIAN_POINT ( 'NONE',  ( -0.5000000000000000000, 3.601707438912865378, 328.0138199278678712 ) ) ;
#1058 = CARTESIAN_POINT ( 'NONE',  ( 0.000000000000000000, 31.55524800644256445, 354.9933993685274345 ) ) ;
#1059 = ORIENTED_EDGE ( 'NONE', *, *, #904, .T. ) ;
#1060 = CARTESIAN_POINT ( 'NONE',  ( 0.2693544262421045388, 0.5580680724238857859, 324.2557771810286908 ) ) ;
#1061 = DIRECTION ( 'NONE',  ( -0.000000000000000000, 0.9972392078358423007, -0.07425605938199075773 ) ) ;
#1062 = EDGE_CURVE ( 'NONE', #482, #192, #840, .T. ) ;
#1063 = CARTESIAN_POINT ( 'NONE',  ( -0.5000000000000000000, 0.5580680724238968882, 324.0522416802536441 ) ) ;
#1064 = DATE_AND_TIME ( #495, #1000 ) ;
#1065 = AXIS2_PLACEMENT_3D ( 'NONE', #436, #1010, #146 ) ;
#1066 = VERTEX_POINT ( 'NONE', #543 ) ;
#1067 = AXIS2_PLACEMENT_3D ( 'NONE', #914, #716, #1030 ) ;
#1068 = AXIS2_PLACEMENT_3D ( 'NONE', #941, #1132, #70 ) ;
#1069 = CARTESIAN_POINT ( 'NONE',  ( 0.9000000000000057954, 4.658068072423887429, 324.0522416802539283 ) ) ;
#1070 = DIRECTION ( 'NONE',  ( 1.000000000000000000, 0.000000000000000000, 0.000000000000000000 ) ) ;
#1071 = FACE_OUTER_BOUND ( 'NONE', #455, .T. ) ;
#1072 = ORIENTED_EDGE ( 'NONE', *, *, #396, .T. ) ;
#1073 = CARTESIAN_POINT ( 'NONE',  ( -0.5000000000000000000, 0.5580680724238968882, 324.0522416802536441 ) ) ;
#1074 = CARTESIAN_POINT ( 'NONE',  ( 0.1478724910569633455, -15.63610932078824867, 311.8781815379384170 ) ) ;
#1075 = ORIENTED_EDGE ( 'NONE', *, *, #371, .F. ) ;
#1076 = CARTESIAN_POINT ( 'NONE',  ( 0.1263354555311514138, 27.28104467860470095, 336.5593134896965921 ) ) ;
#1077 = SECURITY_CLASSIFICATION_LEVEL ( 'unclassified' ) ;
#1078 = ORIENTED_EDGE ( 'NONE', *, *, #488, .F. ) ;
#1079 = EDGE_CURVE ( 'NONE', #998, #266, #535, .T. ) ;
#1080 = VECTOR ( 'NONE', #1214, 1000.000000000000000 ) ;
#1081 = EDGE_CURVE ( 'NONE', #340, #1189, #1153, .T. ) ;
#1082 = CARTESIAN_POINT ( 'NONE',  ( 0.3239003491963265979, 59.96441602495674061, 323.9279482072365681 ) ) ;
#1083 = CARTESIAN_POINT ( 'NONE',  ( 0.5000000000000000000, 3.601707438912865378, 328.0138199278678712 ) ) ;
#1084 = VERTEX_POINT ( 'NONE', #1036 ) ;
#1085 = EDGE_LOOP ( 'NONE', ( #1111, #212, #1134, #1050, #1025, #226 ) ) ;
#1086 = DATE_TIME_ROLE ( 'classification_date' ) ;
#1087 = VERTEX_POINT ( 'NONE', #165 ) ;
#1088 = EDGE_CURVE ( 'NONE', #19, #713, #71, .T. ) ;
#1089 = DIRECTION ( 'NONE',  ( 1.000000000000000000, 0.000000000000000000, 0.000000000000000000 ) ) ;
#1090 = AXIS2_PLACEMENT_3D ( 'NONE', #1039, #659, #403 ) ;
#1091 = DATE_AND_TIME ( #1198, #1053 ) ;
#1092 = ORIENTED_EDGE ( 'NONE', *, *, #527, .F. ) ;
#1093 = ORIENTED_EDGE ( 'NONE', *, *, #924, .F. ) ;
#1094 = DIRECTION ( 'NONE',  ( 1.000000000000000000, 0.000000000000000000, 0.000000000000000000 ) ) ;
#1095 = CARTESIAN_POINT ( 'NONE',  ( 0.1758969445890823380, -50.13361063959484909, 331.0884067228020058 ) ) ;
#1096 = APPROVAL_ROLE ( '' ) ;
#1097 = ORIENTED_EDGE ( 'NONE', *, *, #189, .T. ) ;
#1098 = ORIENTED_EDGE ( 'NONE', *, *, #866, .T. ) ;
#1099 = ADVANCED_FACE ( 'NONE', ( #1233 ), #763, .T. ) ;
#1100 = ADVANCED_FACE ( 'NONE', ( #1164 ), #275, .F. ) ;
#1101 = FACE_OUTER_BOUND ( 'NONE', #885, .T. ) ;
#1102 = LINE ( 'NONE', #875, #405 ) ;
#1103 = AXIS2_PLACEMENT_3D ( 'NONE', #1145, #270, #663 ) ;
#1104 = DIRECTION ( 'NONE',  ( 0.000000000000000000, 0.000000000000000000, -1.000000000000000000 ) ) ;
#1105 = ORIENTED_EDGE ( 'NONE', *, *, #61, .T. ) ;
#1106 = EDGE_CURVE ( 'NONE', #284, #120, #80, .T. ) ;
#1107 = CARTESIAN_POINT ( 'NONE',  ( 0.000000000000000000, 1.078278434512636164, 331.0385290447457010 ) ) ;
#1108 = B_SPLINE_CURVE_WITH_KNOTS ( 'NONE', 3,
 ( #230, #613, #987, #523 ),
 .UNSPECIFIED., .F., .F.,
 ( 4, 4 ),
 ( 3.904533622513132423E-18, 0.002797311502917627923 ),
 .UNSPECIFIED. ) ;
#1109 = DIRECTION ( 'NONE',  ( 0.000000000000000000, 0.000000000000000000, -1.000000000000000000 ) ) ;
#1110 = PLANE ( 'NONE',  #935 ) ;
#1111 = ORIENTED_EDGE ( 'NONE', *, *, #759, .F. ) ;
#1112 = AXIS2_PLACEMENT_3D ( 'NONE', #718, #618, #531 ) ;
#1113 = VECTOR ( 'NONE', #448, 1000.000000000000000 ) ;
#1114 = CARTESIAN_POINT ( 'NONE',  ( -10.00000000000000000, 4.658068072423887429, 324.0522416802539283 ) ) ;
#1115 = LINE ( 'NONE', #1236, #1028 ) ;
#1116 = CARTESIAN_POINT ( 'NONE',  ( 0.09328795698597923403, 58.80859363368390547, 315.1146909961024107 ) ) ;
#1117 = CARTESIAN_POINT ( 'NONE',  ( 0.1698419296040920567, 23.68444989726554439, 335.7675625812180442 ) ) ;
#1118 = ORIENTED_EDGE ( 'NONE', *, *, #818, .F. ) ;
#1119 = FACE_OUTER_BOUND ( 'NONE', #114, .T. ) ;
#1120 = AXIS2_PLACEMENT_3D ( 'NONE', #892, #711, #118 ) ;
#1121 = CARTESIAN_POINT ( 'NONE',  ( -10.00000000000000000, 4.658068072423887429, 320.0522416802539283 ) ) ;
#1122 = ADVANCED_FACE ( 'NONE', ( #391 ), #575, .F. ) ;
#1123 = B_SPLINE_CURVE_WITH_KNOTS ( 'NONE', 3,
 ( #1095, #131, #23, #1008, #222, #697, #409, #135, #1204, #979, #117, #515, #897, #786, #502, #17 ),
 .UNSPECIFIED., .F., .F.,
 ( 4, 2, 2, 2, 2, 2, 2, 4 ),
 ( 0.000000000000000000, 0.001211394229956031833, 0.001817091344934047750, 0.002422788459912063666, 0.003028485574890079583, 0.003634182689868095499, 0.004239879804846111849, 0.004845576919824127332 ),
 .UNSPECIFIED. ) ;
#1124 = EDGE_CURVE ( 'NONE', #13, #948, #344, .T. ) ;
#1125 = DIRECTION ( 'NONE',  ( 1.000000000000000000, 0.000000000000000000, 0.000000000000000000 ) ) ;
#1126 = VERTEX_POINT ( 'NONE', #686 ) ;
#1127 = AXIS2_PLACEMENT_3D ( 'NONE', #194, #1160, #288 ) ;
#1128 = CARTESIAN_POINT ( 'NONE',  ( 0.2738942888682316390, 8.758068072423879968, 324.0522416802542125 ) ) ;
#1129 = ORIENTED_EDGE ( 'NONE', *, *, #1223, .F. ) ;
#1130 = DIRECTION ( 'NONE',  ( 0.000000000000000000, 0.000000000000000000, -1.000000000000000000 ) ) ;
#1131 = CARTESIAN_POINT ( 'NONE',  ( -0.5000000000000000000, -22.23911186159478603, 293.1110839919804221 ) ) ;
#1132 = DIRECTION ( 'NONE',  ( 1.000000000000000000, 0.000000000000000000, 0.000000000000000000 ) ) ;
#1133 = VECTOR ( 'NONE', #666, 1000.000000000000000 ) ;
#1134 = ORIENTED_EDGE ( 'NONE', *, *, #990, .T. ) ;
#1135 = FACE_OUTER_BOUND ( 'NONE', #1161, .T. ) ;
#1136 = CARTESIAN_POINT ( 'NONE',  ( 0.008665017496748092865, 56.94982579874672268, 313.5949885960749839 ) ) ;
#1137 = AXIS2_PLACEMENT_3D ( 'NONE', #43, #1177, #1104 ) ;
#1138 = CARTESIAN_POINT ( 'NONE',  ( 0.2693544262421045388, 8.758068072423888850, 323.8487061794791657 ) ) ;
#1139 = EDGE_CURVE ( 'NONE', #981, #801, #97, .T. ) ;
#1140 = ORIENTED_EDGE ( 'NONE', *, *, #414, .T. ) ;
#1141 = CARTESIAN_POINT ( 'NONE',  ( 0.5000000000000000000, 4.658068072423903416, 324.0522416802539283 ) ) ;
#1142 = DIRECTION ( 'NONE',  ( 1.000000000000000000, 0.000000000000000000, 0.000000000000000000 ) ) ;
#1143 = FACE_OUTER_BOUND ( 'NONE', #496, .T. ) ;
#1144 = VECTOR ( 'NONE', #957, 1000.000000000000000 ) ;
#1145 = CARTESIAN_POINT ( 'NONE',  ( 0.000000000000000000, -0.6898433963474314146, 341.0766200574384470 ) ) ;
#1146 = ORIENTED_EDGE ( 'NONE', *, *, #628, .T. ) ;
#1147 = DIRECTION ( 'NONE',  ( -1.000000000000000000, 2.115516434118060421E-16, 0.000000000000000000 ) ) ;
#1148 = CARTESIAN_POINT ( 'NONE',  ( 0.3063895650093351186, -47.81426457483108550, 320.0498751535108681 ) ) ;
#1149 = EDGE_LOOP ( 'NONE', ( #1230, #1226, #424, #599 ) ) ;
#1150 = CARTESIAN_POINT ( 'NONE',  ( -0.5000000000000000000, 8.712853581113318313, 323.4450230388058003 ) ) ;
#1151 = VECTOR ( 'NONE', #1270, 1000.000000000000000 ) ;
#1152 = ORIENTED_EDGE ( 'NONE', *, *, #776, .F. ) ;
#1153 = CIRCLE ( 'NONE', #1173, 209.7513101736959413 ) ;
#1154 = CARTESIAN_POINT ( 'NONE',  ( 0.3100566286895358736, -48.65165757619477205, 320.3812758219131069 ) ) ;
#1155 = CC_DESIGN_PERSON_AND_ORGANIZATION_ASSIGNMENT ( #297, #99, ( #808 ) ) ;
#1156 = DIRECTION ( 'NONE',  ( 0.000000000000000000, 0.000000000000000000, 1.000000000000000000 ) ) ;
#1157 = ORIENTED_EDGE ( 'NONE', *, *, #667, .F. ) ;
#1158 = CC_DESIGN_DATE_AND_TIME_ASSIGNMENT ( #1064, #1086, ( #453 ) ) ;
#1159 = DIRECTION ( 'NONE',  ( 0.000000000000000000, -0.07425605938199075773, -0.9972392078358423007 ) ) ;
#1160 = DIRECTION ( 'NONE',  ( 0.000000000000000000, 0.9972392078358423007, -0.07425605938199075773 ) ) ;
#1161 = EDGE_LOOP ( 'NONE', ( #359, #772, #180, #783 ) ) ;
#1162 = ADVANCED_FACE ( 'NONE', ( #300 ), #1265, .T. ) ;
#1163 = DIRECTION ( 'NONE',  ( 0.000000000000000000, -1.000000000000000000, 0.000000000000000000 ) ) ;
#1164 = FACE_OUTER_BOUND ( 'NONE', #415, .T. ) ;
#1165 = ORIENTED_EDGE ( 'NONE', *, *, #520, .F. ) ;
#1166 = DIRECTION ( 'NONE',  ( 0.000000000000000000, 0.000000000000000000, -1.000000000000000000 ) ) ;
#1167 = ORIENTED_EDGE ( 'NONE', *, *, #413, .F. ) ;
#1168 = CARTESIAN_POINT ( 'NONE',  ( 0.2645198778265457351, 0.5731406119708556401, 324.4581833172227334 ) ) ;
#1169 = DIRECTION ( 'NONE',  ( 0.000000000000000000, 0.9972392078358423007, -0.07425605938199075773 ) ) ;
#1170 = CARTESIAN_POINT ( 'NONE',  ( 0.3152419391924302094, 14.17204569747313592, 330.8769287391767762 ) ) ;
#1171 = AXIS2_PLACEMENT_3D ( 'NONE', #339, #790, #412 ) ;
#1172 = AXIS2_PLACEMENT_3D ( 'NONE', #67, #635, #1130 ) ;
#1173 = AXIS2_PLACEMENT_3D ( 'NONE', #1032, #1026, #549 ) ;
#1174 = CARTESIAN_POINT ( 'NONE',  ( 0.000000000000000000, 56.56197092524791969, 313.4676619579478825 ) ) ;
#1175 = CYLINDRICAL_SURFACE ( 'NONE', #58, 4.000000000000003553 ) ;
#1176 = EDGE_LOOP ( 'NONE', ( #87, #922, #936 ) ) ;
#1177 = DIRECTION ( 'NONE',  ( 1.000000000000000000, 0.000000000000000000, 0.000000000000000000 ) ) ;
#1178 = EDGE_CURVE ( 'NONE', #284, #289, #732, .T. ) ;
#1179 = PERSON_AND_ORGANIZATION ( #138, #611 ) ;
#1180 = CARTESIAN_POINT ( 'NONE',  ( 0.3063895650093351186, -47.81426457483108550, 320.0498751535108681 ) ) ;
#1181 = PRODUCT ( 'Part2_Default_sldprt', 'Part2_Default_sldprt', '', ( #410 ) ) ;
#1182 = CARTESIAN_POINT ( 'NONE',  ( -0.5000000000000000000, 0.6032825637344567671, 324.6594603217020563 ) ) ;
#1183 =( GEOMETRIC_REPRESENTATION_CONTEXT ( 3 ) GLOBAL_UNCERTAINTY_ASSIGNED_CONTEXT ( ( #1197 ) ) GLOBAL_UNIT_ASSIGNED_CONTEXT ( ( #234, #800, #1211 ) ) REPRESENTATION_CONTEXT ( 'NONE', 'WORKASPACE' ) );
#1184 = DIRECTION ( 'NONE',  ( 1.000000000000000000, 0.000000000000000000, 0.000000000000000000 ) ) ;
#1185 = ORIENTED_EDGE ( 'NONE', *, *, #1079, .T. ) ;
#1186 = ADVANCED_FACE ( 'NONE', ( #493 ), #1175, .T. ) ;
#1187 = ORIENTED_EDGE ( 'NONE', *, *, #419, .T. ) ;
#1188 = DIRECTION ( 'NONE',  ( 0.000000000000000000, 0.000000000000000000, 1.000000000000000000 ) ) ;
#1189 = VERTEX_POINT ( 'NONE', #1048 ) ;
#1190 = VECTOR ( 'NONE', #843, 1000.000000000000000 ) ;
#1191 = CARTESIAN_POINT ( 'NONE',  ( -10.00000000000000000, 4.658068072423888317, 328.0522416802539283 ) ) ;
#1192 = CARTESIAN_POINT ( 'NONE',  ( -209.4249691847613803, 9.106350186110812928, 328.7295782107298123 ) ) ;
#1193 = ORIENTED_EDGE ( 'NONE', *, *, #166, .F. ) ;
#1194 = VERTEX_POINT ( 'NONE', #498 ) ;
#1195 = CARTESIAN_POINT ( 'NONE',  ( 0.5000000000000000000, -50.64827988010896576, 324.1765351532712884 ) ) ;
#1196 = CARTESIAN_POINT ( 'NONE',  ( 0.5000000000000000000, 55.46078995309922988, 313.3131008752337721 ) ) ;
#1197 = UNCERTAINTY_MEASURE_WITH_UNIT (LENGTH_MEASURE( 1.000000000000000082E-05 ), #234, 'distance_accuracy_value', 'NONE');
#1198 = CALENDAR_DATE ( 2026, 21, 9 ) ;
#1199 = EDGE_CURVE ( 'NONE', #317, #26, #653, .T. ) ;
#1200 = EDGE_CURVE ( 'NONE', #59, #317, #813, .T. ) ;
#1201 = EDGE_LOOP ( 'NONE', ( #548, #796 ) ) ;
#1202 = ORIENTED_EDGE ( 'NONE', *, *, #511, .F. ) ;
#1203 = CYLINDRICAL_SURFACE ( 'NONE', #499, 4.099999999999992539 ) ;
#1204 = CARTESIAN_POINT ( 'NONE',  ( 0.06075188861730398265, -48.98021366924542974, 333.6199144155465319 ) ) ;
#1205 = ADVANCED_FACE ( 'NONE', ( #398 ), #861, .F. ) ;
#1206 = ORIENTED_EDGE ( 'NONE', *, *, #1106, .T. ) ;
#1207 = VECTOR ( 'NONE', #717, 1000.000000000000000 ) ;
#1208 = DIRECTION ( 'NONE',  ( -1.000000000000000000, 2.115516434118060421E-16, 0.000000000000000000 ) ) ;
#1209 = CARTESIAN_POINT ( 'NONE',  ( 0.3260962805466949277, 0.1859943648174211539, 319.0553903455864884 ) ) ;
#1210 = AXIS2_PLACEMENT_3D ( 'NONE', #185, #587, #1166 ) ;
#1211 =( NAMED_UNIT ( * ) SI_UNIT ( $, .STERADIAN. ) SOLID_ANGLE_UNIT ( ) );
#1212 = CARTESIAN_POINT ( 'NONE',  ( 0.5000000000000000000, 59.96441602495674061, 323.9279482072365681 ) ) ;
#1213 = ORIENTED_EDGE ( 'NONE', *, *, #354, .T. ) ;
#1214 = DIRECTION ( 'NONE',  ( 1.000000000000000000, 0.000000000000000000, 0.000000000000000000 ) ) ;
#1215 = LINE ( 'NONE', #342, #407 ) ;
#1216 = CARTESIAN_POINT ( 'NONE',  ( 0.000000000000000000, 10.73956140196350795, 316.8796733749186956 ) ) ;
#1217 = CARTESIAN_POINT ( 'NONE',  ( 0.5000000000000000000, -22.23911186159478603, 312.3369207792898123 ) ) ;
#1218 = VERTEX_POINT ( 'NONE', #197 ) ;
#1219 = CIRCLE ( 'NONE', #462, 43.42751337495365505 ) ;
#1220 = LINE ( 'NONE', #358, #528 ) ;
#1221 = VECTOR ( 'NONE', #250, 1000.000000000000000 ) ;
#1222 = EDGE_CURVE ( 'NONE', #384, #266, #927, .T. ) ;
#1223 = EDGE_CURVE ( 'NONE', #109, #56, #435, .T. ) ;
#1224 = DIRECTION ( 'NONE',  ( 0.000000000000000000, -0.07425605938199078548, -0.9972392078358423007 ) ) ;
#1225 = DIRECTION ( 'NONE',  ( 0.000000000000000000, 0.000000000000000000, -1.000000000000000000 ) ) ;
#1226 = ORIENTED_EDGE ( 'NONE', *, *, #557, .T. ) ;
#1227 = CARTESIAN_POINT ( 'NONE',  ( 0.2645198778265457351, 8.742995532876919995, 323.6463000432851231 ) ) ;
#1228 = ADVANCED_FACE ( 'NONE', ( #503 ), #1015, .F. ) ;
#1229 = CC_DESIGN_APPROVAL ( #702, ( #453 ) ) ;
#1230 = ORIENTED_EDGE ( 'NONE', *, *, #956, .T. ) ;
#1231 = CARTESIAN_POINT ( 'NONE',  ( -0.5000000000000000000, 23.68444989726554084, 335.7675625812180442 ) ) ;
#1232 = DIRECTION ( 'NONE',  ( 0.000000000000000000, 0.9574089405581037715, -0.2887353815163795634 ) ) ;
#1233 = FACE_OUTER_BOUND ( 'NONE', #311, .T. ) ;
#1234 = B_SPLINE_CURVE_WITH_KNOTS ( 'NONE', 3,
 ( #761, #860, #1154, #580, #491, #845, #574, #679, #299, #388 ),
 .UNSPECIFIED., .F., .F.,
 ( 4, 2, 2, 2, 4 ),
 ( 0.000000000000000000, 0.001345878627168019129, 0.002691757254336038258, 0.004037635881504057604, 0.005383514508672076516 ),
 .UNSPECIFIED. ) ;
#1235 = EDGE_LOOP ( 'NONE', ( #315, #1146, #1118, #1092 ) ) ;
#1236 = CARTESIAN_POINT ( 'NONE',  ( -0.5000000000000000000, -10.04478385871892065, 334.7913824852740845 ) ) ;
#1237 = CARTESIAN_POINT ( 'NONE',  ( 0.06075188861730395490, 58.29634981409323302, 314.4845689449613815 ) ) ;
#1238 = VECTOR ( 'NONE', #235, 1000.000000000000114 ) ;
#1239 = EDGE_CURVE ( 'NONE', #1262, #19, #332, .T. ) ;
#1240 = CARTESIAN_POINT ( 'NONE',  ( 0.06536543462215549383, 0.9865051230418462325, 329.8060377814966841 ) ) ;
#1241 = EDGE_CURVE ( 'NONE', #906, #948, #1108, .T. ) ;
#1242 = AXIS2_PLACEMENT_3D ( 'NONE', #1131, #42, #68 ) ;
#1243 = AXIS2_PLACEMENT_3D ( 'NONE', #1022, #826, #172 ) ;
#1244 = ORIENTED_EDGE ( 'NONE', *, *, #1062, .T. ) ;
#1245 = DIRECTION ( 'NONE',  ( 0.000000000000000000, 0.000000000000000000, 1.000000000000000000 ) ) ;
#1246 = LINE ( 'NONE', #749, #900 ) ;
#1247 = CYLINDRICAL_SURFACE ( 'NONE', #1068, 4.099999999999992539 ) ;
#1248 = LINE ( 'NONE', #91, #633 ) ;
#1249 = ORIENTED_EDGE ( 'NONE', *, *, #644, .T. ) ;
#1250 = CARTESIAN_POINT ( 'NONE',  ( 0.3239003491963265979, -50.64827988010896576, 324.1765351532712884 ) ) ;
#1251 = DIRECTION ( 'NONE',  ( 1.000000000000000000, 0.000000000000000000, 0.000000000000000000 ) ) ;
#1252 = CIRCLE ( 'NONE', #476, 43.42751337495365505 ) ;
#1253 = DIRECTION ( 'NONE',  ( 0.000000000000000000, 0.000000000000000000, -1.000000000000000000 ) ) ;
#1254 = ORIENTED_EDGE ( 'NONE', *, *, #488, .T. ) ;
#1255 = DIRECTION ( 'NONE',  ( 1.000000000000000000, 0.000000000000000000, 0.000000000000000000 ) ) ;
#1256 = CARTESIAN_POINT ( 'NONE',  ( 0.5000000000000000000, 31.55524800644256445, 335.7675625812180442 ) ) ;
#1257 = ORIENTED_EDGE ( 'NONE', *, *, #1200, .F. ) ;
#1258 = FACE_OUTER_BOUND ( 'NONE', #795, .T. ) ;
#1259 = VERTEX_POINT ( 'NONE', #1083 ) ;
#1260 = VECTOR ( 'NONE', #217, 1000.000000000000000 ) ;
#1261 = DIRECTION ( 'NONE',  ( 0.000000000000000000, 0.000000000000000000, -1.000000000000000000 ) ) ;
#1262 = VERTEX_POINT ( 'NONE', #884 ) ;
#1263 = EDGE_CURVE ( 'NONE', #573, #3, #903, .T. ) ;
#1264 = LINE ( 'NONE', #754, #1151 ) ;
#1265 = CYLINDRICAL_SURFACE ( 'NONE', #393, 4.000000000000003553 ) ;
#1266 = CARTESIAN_POINT ( 'NONE',  ( 0.000000000000000000, -10.04478385871892243, 334.7913824852740845 ) ) ;
#1267 = EDGE_LOOP ( 'NONE', ( #373, #977, #579 ) ) ;
#1268 = VERTEX_POINT ( 'NONE', #429 ) ;
#1269 = MANIFOLD_SOLID_BREP ( 'Cut-Extrude2', #951 ) ;
#1270 = DIRECTION ( 'NONE',  ( 1.000000000000000000, 0.000000000000000000, 0.000000000000000000 ) ) ;
#1271 = CARTESIAN_POINT ( 'NONE',  ( 0.1263354555311514138, -17.96490853375693320, 311.5451698708113213 ) ) ;
ENDSEC;
END-ISO-10303-21;
